<?xml version="1.0" encoding="UTF-8" standalone="no"?>
<!-- Created with Inkscape (http://www.inkscape.org/) -->

<svg
   version="1.1"
   id="svg9"
   width="400"
   height="274.81992"
   viewBox="0 0 400 274.81992"
   sodipodi:docname="bp_distrobution_logo_100x68_705.svg"
   inkscape:version="1.1 (c68e22c387, 2021-05-23)"
   xmlns:inkscape="http://www.inkscape.org/namespaces/inkscape"
   xmlns:sodipodi="http://sodipodi.sourceforge.net/DTD/sodipodi-0.dtd"
   xmlns="http://www.w3.org/2000/svg"
   xmlns:svg="http://www.w3.org/2000/svg">
  <defs
     id="defs13">
    <inkscape:path-effect
       effect="bspline"
       id="path-effect5362"
       is_visible="true"
       lpeversion="1"
       weight="33.333333"
       steps="2"
       helper_size="0"
       apply_no_weight="true"
       apply_with_weight="true"
       only_selected="false" />
  </defs>
  <sodipodi:namedview
     id="namedview11"
     pagecolor="#ffffff"
     bordercolor="#111111"
     borderopacity="1"
     inkscape:pageshadow="0"
     inkscape:pageopacity="0"
     inkscape:pagecheckerboard="1"
     showgrid="false"
     inkscape:zoom="1.2986288"
     inkscape:cx="218.30719"
     inkscape:cy="174.41474"
     inkscape:window-width="2339"
     inkscape:window-height="1045"
     inkscape:window-x="3620"
     inkscape:window-y="155"
     inkscape:window-maximized="0"
     inkscape:current-layer="layer6" />
  <g
     inkscape:groupmode="layer"
     id="layer6"
     inkscape:label="text 2"
     style="display:inline"
     transform="translate(-19,-18.5)">
    <g
       inkscape:groupmode="layer"
       id="layer5"
       inkscape:label="text 1"
       style="display:inline">
      <g
         inkscape:groupmode="layer"
         id="layer4"
         inkscape:label="text"
         style="display:inline">
        <g
           inkscape:groupmode="layer"
           id="layer1"
           inkscape:label="b"
           style="display:inline">
          <path
             style="display:inline;fill:#033ed3;fill-opacity:1;stroke:#838383;stroke-width:0.100502;stroke-opacity:1"
             d="m 52.736252,54.555278 c 1.136708,-2.436425 1.430875,-3.040203 1.48122,-3.040203 0.09398,0 4.481038,3.23199 4.480646,3.300935 -2.03e-4,0.03625 -0.09,0.212885 -0.199528,0.392533 l -0.199152,0.326632 h -3.01018 -3.010178 z"
             id="path13600" />
          <path
             style="display:inline;fill:#033ed3;fill-opacity:1;stroke:#838383;stroke-width:0.100502;stroke-opacity:1"
             d="m 31.160804,69.061018 c 0,-0.03536 3.178747,-6.91157 4.394328,-9.50574 0.717414,-1.531033 4.999986,-10.748128 5.603623,-12.060303 0.343285,-0.746232 1.518025,-3.278895 2.61053,-5.62814 3.536342,-7.6043 5.218282,-11.224245 7.237978,-15.57789 1.089835,-2.349246 2.345329,-5.051508 2.789987,-6.005025 l 0.808465,-1.733669 h 5.021965 c 3.978973,0 5.010907,0.02609 4.968718,0.125629 -0.02929,0.0691 -1.327773,2.861809 -2.885525,6.20603 -1.557753,3.344221 -3.545545,7.61809 -4.417318,9.497487 -0.871772,1.879397 -3.10981,6.695981 -4.973417,10.703518 -6.416843,13.798895 -6.98848,15.034495 -6.98848,15.10568 0,0.03928 3.577542,0.05983 7.950095,0.04568 l 7.950094,-0.02573 1.803513,-3.05767 c 1.720257,-2.916523 1.795167,-3.06544 1.62277,-3.225903 -0.09941,-0.09253 -1.537528,-1.154575 -3.195817,-2.360115 -3.235288,-2.351975 -4.071196,-2.96306 -4.206651,-3.075235 -0.04733,-0.03919 0.409578,-1.127012 1.015343,-2.417375 0.605765,-1.290362 1.41333,-3.01305 1.79459,-3.828195 0.38126,-0.815145 0.727483,-1.48223 0.769388,-1.482412 0.0836,-5e-4 0.680284,0.426202 4.496675,3.21464 1.409547,1.029885 4.313372,3.149215 6.452942,4.709625 l 3.890125,2.83711 -0.332507,0.724675 c -0.18288,0.39857 -1.521601,3.257337 -2.974933,6.352815 -1.45333,3.095477 -3.150967,6.713567 -3.772528,8.0402 l -1.130105,2.412062 -18.151925,0.0254 c -9.983557,0.01398 -18.151923,0.0062 -18.151923,-0.01715 z"
             id="path13596" />
        </g>
        <g
           inkscape:groupmode="layer"
           id="layer3"
           inkscape:label="p"
           style="display:inline">
          <path
             style="display:inline;fill:#b62200;fill-opacity:1;stroke:#b62200;stroke-width:0.100502;stroke-opacity:1"
             d="m 73.472363,69.050503 c 0,-0.02888 0.593272,-1.329133 1.318385,-2.889448 0.725114,-1.560315 3.195519,-6.884672 5.489792,-11.83191 2.294275,-4.947235 5.482395,-11.821607 7.084715,-15.27638 4.182515,-9.017959 5.40359,-11.665402 5.40359,-11.715674 0,-0.02438 -3.575653,-0.03275 -7.945895,-0.0186 l -7.945893,0.02573 -1.806782,3.043435 c -0.993733,1.673889 -1.781583,3.08421 -1.750783,3.134047 0.0308,0.04984 0.88056,0.690837 1.888355,1.424445 2.480898,1.805931 5.644275,4.119565 5.683025,4.156457 0.03667,0.03492 -3.48401,7.605615 -3.583265,7.705273 -0.03652,0.03667 -0.792422,-0.46082 -1.679782,-1.10553 -1.442023,-1.047698 -13.101255,-9.553405 -13.200678,-9.630231 -0.0221,-0.01708 0.370853,-0.902417 0.873238,-1.967415 0.502385,-1.064998 1.102322,-2.343395 1.333195,-2.840883 0.230872,-0.497487 0.67738,-1.447236 0.992242,-2.110553 0.314863,-0.663316 1.56295,-3.320351 2.773528,-5.904522 l 2.201053,-4.698493 h 18.168379 18.168378 l -0.23688,0.527639 c -0.19689,0.438543 -1.97992,4.286983 -7.298933,15.753768 -0.320507,0.690955 -1.056197,2.27387 -1.634865,3.517588 -0.57867,1.243719 -1.88989,4.070352 -2.913825,6.281407 -4.210852,9.092785 -5.808687,12.538507 -7.386825,15.92965 -0.913202,1.96231 -2.055672,4.427135 -2.53882,5.477385 -0.48315,1.050252 -1.000105,2.1696 -1.148792,2.487437 l -0.270343,0.57789 H 78.49012 c -2.759768,0 -5.017758,-0.02362 -5.017757,-0.05251 z"
             id="path13598" />
          <path
             style="display:inline;fill:#b62200;fill-opacity:1;stroke:#b62200;stroke-width:0.100502;stroke-opacity:1"
             d="M 82.869348,35.173661 C 82.37186,34.811999 81.43566,34.127583 80.788905,33.652738 80.14215,33.177893 79.5571,32.754842 79.488793,32.712626 c -0.09563,-0.0591 -0.08171,-0.170963 0.06053,-0.4864 l 0.184722,-0.409643 h 3.038698 3.038697 l -0.918283,2.006542 c -0.505054,1.103598 -0.963509,2.006893 -1.018784,2.007322 -0.05528,4e-4 -0.507538,-0.295123 -1.005025,-0.656786 z"
             id="path13602" />
        </g>
        <path
           style="display:inline;fill:#8c8c8c;fill-opacity:1;stroke-width:0.100502"
           d="M 19.628141,86.811788 19,86.781868 v -6.12586 -6.125858 h 3.094462 c 3.008728,0 3.568779,0.04556 4.367849,0.355333 0.134619,0.05219 0.17588,0.0167 0.17588,-0.15124 v -0.219425 l 3.090452,0.03624 c 2.96699,0.03479 3.114543,0.04573 3.693468,0.273727 0.790362,0.311268 1.323358,0.683275 1.911849,1.334385 1.691536,1.871525 1.625226,4.745433 -0.150533,6.52426 -0.608171,0.609223 -1.141053,0.926658 -2.012573,1.198875 l -0.552764,0.172655 -0.02796,1.368245 c -0.02027,0.991963 -0.06173,1.369663 -0.150754,1.373395 -0.06754,0.0028 -1.386707,0.0025 -2.931491,-0.001 -1.914929,-0.0041 -2.830275,-0.04096 -2.876499,-0.115757 -0.04884,-0.07903 -0.218939,-0.07745 -0.608386,0.0056 -0.505163,0.10779 -4.942849,0.195365 -6.394858,0.126197 z"
           id="path13584" />
        <path
           style="display:inline;fill:#8c8c8c;fill-opacity:1;stroke-width:0.100502"
           d="m 116.64138,86.995983 c -0.18371,-0.20299 -0.27439,-0.208783 -3.16149,-0.201965 -1.63479,0.0038 -3.48115,0.0049 -4.103,0.0023 l -1.13066,-0.0048 V 86.48996 c 0,-0.366337 -0.07,-0.37126 -0.70493,-0.04953 -0.69397,0.351663 -1.61529,0.548818 -2.57281,0.550563 -1.0116,0.0018 -1.6806,-0.12131 -2.48253,-0.457003 -0.98746,-0.41335 -0.9734,-0.412545 -0.9734,-0.05575 v 0.31323 l -1.48241,0.0094 c -1.307933,0.0083 -5.91614,0.0053 -8.542713,-0.0055 l -0.929647,-0.0038 v -0.854273 c 0,-0.469847 -0.02955,-0.85427 -0.06567,-0.85427 -0.03611,0 -0.30019,0.221803 -0.58683,0.492895 -1.840002,1.7402 -4.904445,1.906078 -7.081887,0.383345 l -0.34745,-0.24298 -0.45657,0.323448 c -0.251115,0.177895 -0.727928,0.427432 -1.059585,0.554525 l -0.603015,0.231075 -10.552765,-0.0107 C 64,86.808625 58.832915,86.801025 58.321607,86.79763 l -0.929647,-0.0062 v -0.40201 c 0,-0.221105 -0.02892,-0.40201 -0.06426,-0.40201 -0.03534,0 -0.272779,0.1279 -0.527637,0.284223 -0.746882,0.45812 -1.38848,0.63707 -2.486995,0.693655 -0.75003,0.03863 -1.220087,0.0076 -1.78282,-0.117558 -0.420325,-0.09351 -0.805315,-0.14463 -0.855533,-0.113595 -0.07876,0.04868 -2.629142,0.07957 -5.162149,0.06253 l -0.778895,-0.0052 V 86.38108 c 0,-0.225713 -0.03392,-0.39335 -0.07538,-0.372525 -1.578123,0.792662 -2.008625,0.8346 -8.090454,0.788097 l -0.678392,-0.0052 v -6.138787 -6.138788 l 3.39196,0.04044 c 3.651248,0.04353 3.841508,0.06808 4.974876,0.641997 l 0.477385,0.241743 v -0.453955 -0.453955 h 2.95645 c 2.275635,0 2.966172,0.02893 2.998677,0.12563 0.03312,0.09853 0.12704,0.09432 0.435513,-0.01955 0.33303,-0.122928 1.609622,-0.140853 8.33298,-0.116998 7.574185,0.02687 8.475307,0.057 9.127145,0.305195 0.37066,0.141133 0.370342,0.141218 0.370342,-0.0983 0,-0.205433 0.01498,-0.205938 5.201005,-0.17588 4.023868,0.02332 5.252523,0.05956 5.428625,0.160107 0.192837,0.1101 0.236718,0.10626 0.287135,-0.02513 0.0531,-0.138385 1.167828,-0.155088 10.350268,-0.155088 h 10.290754 v 0.40201 c 0,0.221108 0.0275,0.40201 0.061,0.40201 0.0336,0 0.34257,-0.134375 0.6867,-0.29861 1.61134,-0.769022 3.85534,-0.732995 5.46409,0.08773 0.22735,0.115982 0.43778,0.210877 0.46762,0.210877 0.0298,0 0.0542,-0.180902 0.0542,-0.40201 v -0.40201 h 1.00503 1.00502 v -0.40201 c 0,-0.221105 0.0392,-0.40201 0.0871,-0.40201 0.0479,0 0.20686,0.180905 0.35318,0.40201 l 0.26604,0.40201 H 114.98132 119 v 6.130655 6.130653 h -1.00826 c -0.92583,0 -1.01452,0.0169 -1.08475,0.206755 l -0.0765,0.206755 z"
           id="path13205" />
        <path
           style="fill:#033ed3;fill-opacity:1;stroke-width:0.109448"
           d="m 116.62952,86.901583 c -0.0905,-0.05723 -1.83153,-0.102895 -3.99117,-0.104683 -2.10687,-0.0017 -3.93872,-0.03214 -4.07078,-0.06755 -0.13521,-0.03626 -0.25475,-0.1671 -0.27362,-0.299487 -0.0435,-0.304883 -0.27707,-0.284815 -1.18271,0.101602 -0.60309,0.257328 -0.90432,0.310913 -1.97837,0.351935 -1.22978,0.04697 -1.30012,0.03689 -2.39713,-0.343662 -0.62159,-0.21563 -1.17193,-0.366243 -1.22297,-0.334693 -0.0511,0.03155 -0.0928,0.147685 -0.0928,0.258085 0,0.1104 -0.0779,0.230623 -0.17312,0.26716 -0.22514,0.0864 -10.09307,0.08398 -10.415947,-0.0025 -0.227186,-0.06088 -0.246258,-0.128585 -0.246258,-0.874087 0,-0.44445 -0.03195,-0.808093 -0.07101,-0.808093 -0.03905,0 -0.346658,0.22693 -0.683565,0.50429 -1.165925,0.959855 -2.23495,1.352888 -3.68556,1.355023 -1.060773,0.0015 -1.787943,-0.196413 -2.917368,-0.794258 -0.783065,-0.414505 -0.85968,-0.43456 -1.039752,-0.272172 -0.10692,0.09642 -0.562393,0.351477 -1.012168,0.566795 l -0.81777,0.391487 H 69.062818 c -6.21204,0 -11.372525,-0.02989 -11.46774,-0.06643 -0.1108,-0.04252 -0.173125,-0.200127 -0.173125,-0.43779 0,-0.204247 -0.02393,-0.37136 -0.05315,-0.37136 -0.02923,0 -0.3699,0.16804 -0.757037,0.373423 -0.993363,0.526987 -1.732478,0.656842 -3.128698,0.54968 -0.632737,-0.04856 -2.512275,-0.07425 -4.176747,-0.05709 -1.664473,0.01717 -3.129703,-0.0015 -3.25607,-0.04171 -0.126365,-0.04011 -0.229758,-0.16408 -0.229758,-0.275493 0,-0.510437 -0.09101,-0.54492 -0.712645,-0.270005 -0.954522,0.422135 -1.85278,0.515728 -5.080292,0.52933 l -3.017608,0.01273 -0.02828,-6.10864 -0.02828,-6.10864 2.819203,0.06517 c 3.96343,0.09162 4.226895,0.119275 5.210978,0.547073 l 0.836932,0.36383 V 75.00492 74.509048 l 2.873003,0.0775 c 1.580152,0.04263 3.24239,0.06158 3.693862,0.04212 0.451473,-0.01945 4.219213,-0.02881 8.372755,-0.02078 7.11442,0.01375 8.034383,0.04682 9.002078,0.323573 0.176607,0.05051 0.246257,0.02435 0.246257,-0.09245 0,-0.126782 0.200093,-0.174552 0.902945,-0.215565 1.399305,-0.08165 9.065442,0.03164 9.487323,0.140205 0.256772,0.06607 0.424627,0.05618 0.529965,-0.03124 0.114287,-0.09485 2.784634,-0.14008 10.322722,-0.174847 l 10.168549,-0.0469 0.002,0.314932 c 0.003,0.567895 0.10336,0.596655 0.89836,0.257505 1.71952,-0.733547 3.5397,-0.71853 5.26261,0.04342 0.3334,0.147445 0.63461,0.239643 0.66937,0.204885 0.0348,-0.03476 0.0632,-0.227367 0.0632,-0.428022 v -0.364825 h 0.98503 0.98503 v -0.328345 c 0,-0.415058 0.10583,-0.415058 0.38306,0 l 0.2189,0.327715 4.0222,2.5e-4 4.02221,2.5e-4 v 6.0593 6.0593 l -0.95583,0.07756 c -0.5257,0.04265 -1.00756,0.120487 -1.07078,0.172962 -0.0658,0.05457 -0.18367,0.05195 -0.27546,-0.0061 z"
           id="path18066" />
        <path
           style="fill:#033ed3;fill-opacity:1;stroke-width:0.109448"
           d="m 19.142598,86.733143 c -0.107038,-0.05016 -0.13681,-1.387588 -0.13681,-6.145698 v -6.081582 l 3.201347,0.06314 c 2.453734,0.04839 3.329144,0.103055 3.748586,0.234065 0.697307,0.217797 0.71141,0.216805 0.71141,-0.04996 0,-0.221082 0.02949,-0.222545 3.037176,-0.150655 3.33391,0.07969 3.708036,0.14373 4.658052,0.797358 1.544665,1.06276 2.362423,2.89566 2.065205,4.628902 -0.323254,1.88507 -1.554903,3.279538 -3.369581,3.81503 l -0.449632,0.13268 -0.05962,1.293955 c -0.03279,0.711675 -0.09622,1.353183 -0.140961,1.425573 -0.06236,0.100892 -0.735446,0.1101 -2.883631,0.03944 -1.541259,-0.0507 -2.974668,-0.08917 -3.185355,-0.0855 -0.210687,0.0037 -1.885238,0.03833 -3.721224,0.07702 -1.835986,0.03869 -3.399721,0.0415 -3.474966,0.0062 z"
           id="path18105" />
      </g>
      <path
         style="display:inline;fill:#d9d9d8;fill-opacity:1;stroke-width:0.100502"
         d="m 25.550483,84.878643 c 1.728515,-0.480088 2.525346,-2.605488 1.52788,-4.075338 -0.259914,-0.383005 -0.261094,-0.39297 -0.09984,-0.842932 0.231174,-0.645088 0.210677,-1.547995 -0.04724,-2.080775 -0.262179,-0.54159 -0.961852,-1.166553 -1.479707,-1.321705 -0.247071,-0.07403 -1.169458,-0.118195 -2.46826,-0.118195 H 20.90955 v 4.271357 4.271358 l 2.135678,-5e-4 c 1.174623,-2.5e-4 2.301989,-0.04675 2.505257,-0.10321 z"
         id="path13586" />
      <path
         style="display:inline;fill:#d9d9d8;fill-opacity:1;stroke-width:0.100502"
         d="m 30.636,83.612368 0.02796,-1.319795 0.926813,-0.04316 c 1.075491,-0.05009 1.630619,-0.25779 2.209064,-0.826522 0.558884,-0.549503 0.802245,-1.098268 0.856689,-1.931783 0.03994,-0.611465 0.01028,-0.79703 -0.20083,-1.25628 -0.334753,-0.72825 -0.664479,-1.095045 -1.301655,-1.447995 l -0.535952,-0.29688 -2.035176,-0.03253 -2.035175,-0.03253 v 4.211762 c 0,2.31647 0.03168,4.243443 0.0704,4.282163 0.03872,0.03872 0.502286,0.05756 1.03015,0.04188 l 0.959753,-0.02852 z"
         id="path13592" />
      <path
         style="display:inline;fill:#d9d9d8;fill-opacity:1;stroke-width:0.100502"
         d="m 43.341787,84.870393 c 3.303218,-0.694768 4.58689,-4.637348 2.297905,-7.057613 -1.080232,-1.142185 -1.879202,-1.373082 -4.75126,-1.373082 h -2.089437 v 4.204355 c 0,2.312397 0.03015,4.234507 0.067,4.271357 0.112604,0.112605 3.907878,0.07443 4.47579,-0.04502 z"
         id="path13558" />
      <path
         style="display:inline;fill:#d9d9d8;fill-opacity:1;stroke-width:0.100502"
         d="m 49.729745,80.73618 0.02623,-4.19598 h -1.05638 -1.05638 v 4.154105 c 0,2.284758 0.03168,4.185783 0.0704,4.224503 0.03872,0.03872 0.502285,0.05756 1.03015,0.04188 l 0.959753,-0.02852 z"
         id="path13562" />
      <path
         style="display:inline;fill:#d9d9d8;fill-opacity:1;stroke-width:0.100502"
         d="m 55.281407,84.935215 c 0.674861,-0.241807 1.18651,-0.637645 1.488768,-1.15178 0.23275,-0.395907 0.269833,-0.570305 0.268622,-1.263335 -0.0015,-0.894725 -0.121299,-1.207407 -0.669735,-1.748932 -0.355855,-0.351373 -1.18114,-0.80549 -1.841425,-1.01326 -0.92772,-0.29192 -1.358827,-0.527538 -1.4214,-0.776853 -0.103632,-0.412905 0.217435,-0.592952 0.975315,-0.546937 0.264128,0.01602 0.562236,0.24102 0.834603,0.62988 l 0.154278,0.220262 0.83363,-0.497177 c 0.458497,-0.27345 0.8472,-0.567643 0.863782,-0.65376 0.05187,-0.269353 -0.716025,-1.12328 -1.293225,-1.43811 -0.46626,-0.254318 -0.679805,-0.30325 -1.478535,-0.338793 -1.09957,-0.04893 -1.63731,0.11049 -2.25498,0.66852 -0.586725,0.53007 -0.781305,0.985033 -0.781305,1.82682 0,0.857685 0.205927,1.324035 0.814795,1.845203 0.39198,0.33552 0.788092,0.514462 2.379937,1.075135 0.36314,0.127905 0.677458,0.307662 0.738983,0.422625 0.270757,0.505912 -0.426018,0.959767 -1.277458,0.832085 -0.471332,-0.07068 -0.995692,-0.434143 -1.09987,-0.762378 -0.03432,-0.108125 -0.12345,-0.19659 -0.198072,-0.19659 -0.104755,0 -1.584413,0.8123 -1.742613,0.956655 -0.0755,0.06889 0.33338,0.730545 0.671753,1.087035 0.910822,0.959603 2.658775,1.316495 4.034152,0.823685 z"
         id="path13548" />
      <path
         style="display:inline;fill:#d9d9d8;fill-opacity:1;stroke-width:0.100502"
         d="m 61.388328,81.690955 0.02652,-3.241207 h 1.053882 1.053885 v -1.006435 -1.006438 l -3.190955,0.02654 -3.190955,0.02654 v 0.954773 0.954775 l 1.080403,0.02853 1.080402,0.02853 v 3.195932 c 0,1.75776 0.03168,3.227608 0.0704,3.266328 0.03872,0.03872 0.502287,0.05756 1.030152,0.04188 l 0.959753,-0.02852 z"
         id="path13564" />
      <path
         style="display:inline;fill:#d9d9d8;fill-opacity:1;stroke-width:0.100502"
         d="m 66.51548,83.600503 0.02804,-1.331658 h 0.438515 0.438515 l 0.748228,1.331658 0.748225,1.331657 1.17215,0.02832 c 0.856268,0.02068 1.172152,-0.004 1.172152,-0.09151 0,-0.0659 -0.36181,-0.769328 -0.804019,-1.563168 -0.442213,-0.79384 -0.804021,-1.46648 -0.804021,-1.494757 0,-0.02827 0.157985,-0.209398 0.351078,-0.402488 0.62027,-0.620272 0.802315,-1.086525 0.802085,-2.054282 -2.02e-4,-0.732153 -0.03881,-0.927828 -0.270235,-1.36882 -0.293073,-0.558453 -0.67758,-0.928635 -1.323485,-1.274175 -0.384542,-0.20572 -0.5714,-0.223588 -2.649895,-0.253363 l -2.236182,-0.03203 v 4.211262 c 0,2.316195 0.03163,4.242898 0.0703,4.28156 0.03866,0.03866 0.524843,0.05751 1.080403,0.04187 l 1.010104,-0.02842 z"
         id="path13566" />
      <path
         style="display:inline;fill:#d9d9d8;fill-opacity:1;stroke-width:0.100502"
         d="m 74.051355,80.73618 0.02623,-4.19598 h -1.106631 -1.10663 v 4.154105 c 0,2.284758 0.03163,4.185738 0.0703,4.2244 0.03866,0.03866 0.524844,0.05751 1.080402,0.04187 l 1.010105,-0.02842 z"
         id="path13570" />
      <path
         style="display:inline;fill:#d9d9d8;fill-opacity:1;stroke-width:0.100502"
         d="m 80.267555,84.833923 c 0.659903,-0.19597 1.27067,-0.733785 1.601703,-1.41039 0.233284,-0.476815 0.26354,-0.645723 0.231022,-1.289673 -0.03115,-0.616877 -0.08999,-0.825565 -0.35125,-1.245847 L 81.4352,80.383165 81.635023,79.79334 c 0.462342,-1.36472 -0.288555,-2.882277 -1.60741,-3.248555 -0.20589,-0.05718 -1.312788,-0.104217 -2.459773,-0.104525 l -2.085427,-5e-4 v 4.271358 4.271357 h 2.142562 c 1.597357,0 2.2698,-0.03778 2.64258,-0.14849 z"
         id="path13572" />
      <path
         style="display:inline;fill:#d9d9d8;fill-opacity:1;stroke-width:0.100502"
         d="m 87.589975,84.874398 c 0.778075,-0.291115 1.557087,-1.048678 1.794317,-1.744913 0.143053,-0.419835 0.168473,-0.95424 0.168473,-3.54186 V 76.5402 H 88.497487 87.44221 v 2.922305 2.922305 l -0.293775,0.293775 c -0.26444,0.26444 -0.359015,0.293778 -0.947063,0.293778 -0.556192,0 -0.699245,-0.03867 -0.962505,-0.26019 L 84.929648,82.45198 V 79.496093 76.5402 H 83.816547 82.70345 l 0.03406,3.140705 c 0.02906,2.679213 0.05895,3.196075 0.203433,3.517548 0.749745,1.668162 2.746219,2.387877 4.649032,1.675945 z"
         id="path13550" />
      <path
         style="display:inline;fill:#d9d9d8;fill-opacity:1;stroke-width:0.100502"
         d="m 94.554155,81.690955 0.02652,-3.241207 h 1.053882 1.053885 v -1.005025 -1.005025 h -3.16583 -3.165827 v 1.005025 1.005025 h 1.055275 1.055277 v 3.19933 c 0,1.759632 0.03168,3.23101 0.0704,3.26973 0.03872,0.03872 0.502285,0.05756 1.03015,0.04188 l 0.959752,-0.02852 z"
         id="path13578" />
      <path
         style="display:inline;fill:#d9d9d8;fill-opacity:1;stroke-width:0.100502"
         d="m 99.679495,80.73618 0.02623,-4.19598 h -1.10663 -1.10663 v 4.154105 c 0,2.284758 0.03163,4.185738 0.0703,4.2244 0.03866,0.03866 0.524843,0.05751 1.0804,0.04187 l 1.010108,-0.02842 z"
         id="path13580" />
      <path
         style="display:inline;fill:#d9d9d8;fill-opacity:1;stroke-width:0.100502"
         d="m 105.74508,85.082385 c 2.28174,-0.425842 3.87076,-2.692157 3.50275,-4.99576 -0.22748,-1.424015 -1.11946,-2.642492 -2.39357,-3.269735 -0.58199,-0.286517 -0.77305,-0.3276 -1.67964,-0.361157 -1.2497,-0.04626 -1.87139,0.111702 -2.75079,0.698945 -2.749717,1.83619 -2.462,6.05384 0.51279,7.517107 0.9706,0.477428 1.80037,0.59874 2.80846,0.4106 z"
         id="path13552" />
      <path
         style="display:inline;fill:#d9d9d8;fill-opacity:1;stroke-width:0.100502"
         d="m 112.26633,82.623453 0.0503,-2.30871 1.39047,2.184462 c 0.76476,1.201453 1.45944,2.253425 1.54373,2.33772 0.11769,0.117688 0.34313,0.146525 0.97134,0.124248 l 0.81808,-0.02901 0.0262,-4.19598 0.0262,-4.19598 h -1.05638 -1.05638 V 78.5 c 0,1.07789 -0.037,1.9598 -0.0821,1.9598 -0.0452,0 -0.64441,-0.881757 -1.33166,-1.95946 l -1.24953,-1.95946 -1.0804,-2.5e-4 -1.0804,-2.5e-4 v 4.154105 c 0,2.284758 0.0317,4.185783 0.0704,4.224503 0.0387,0.03872 0.50228,0.05756 1.03015,0.04188 l 0.95975,-0.02852 z"
         id="path13582" />
      <path
         style="fill:#d9d9d8;fill-opacity:1;stroke-width:0.109448"
         d="M 20.975848,80.734775 V 76.50863 l 1.997421,5e-4 c 1.098582,2.5e-4 2.18571,0.0529 2.41584,0.116798 0.243657,0.06766 0.639083,0.330255 0.946739,0.628715 0.750579,0.72814 0.936148,1.509585 0.613256,2.582475 -0.150783,0.501012 -0.145479,0.5396 0.164086,1.193957 0.509734,1.077475 0.401827,2.091463 -0.311219,2.924498 -0.71658,0.83716 -0.980047,0.908292 -3.555082,0.959802 l -2.271041,0.04543 z"
         id="path26252" />
      <path
         style="fill:#d9d9d8;fill-opacity:1;stroke-width:0.109448"
         d="m 28.710157,84.863143 c -0.04013,-0.04013 -0.07297,-1.936313 -0.07297,-4.21374 V 76.50863 h 1.919696 c 1.68804,0 1.970237,0.02578 2.338513,0.213663 1.546097,0.788762 2.116977,2.39073 1.385068,3.886697 -0.525158,1.073383 -1.496417,1.590923 -2.985658,1.590923 h -0.687559 v 1.368097 1.368098 h -0.912065 c -0.501635,0 -0.944899,-0.03284 -0.985029,-0.07297 z"
         id="path26291" />
      <path
         style="fill:#d9d9d8;fill-opacity:1;stroke-width:0.109448"
         d="M 38.88763,83.868993 C 38.84876,83.282078 38.81671,81.380395 38.8164,79.643028 l -6e-4,-3.158848 2.325764,0.04871 c 2.07803,0.04352 2.392762,0.07479 2.954725,0.29357 0.819602,0.31908 1.697289,1.128512 2.171002,2.002172 0.358188,0.660603 0.374023,0.738463 0.374023,1.83901 0,1.050068 -0.02775,1.205728 -0.321735,1.80449 -0.635473,1.294298 -1.870958,2.17514 -3.311288,2.360795 -0.409687,0.05281 -1.488545,0.09763 -2.397457,0.0996 l -1.652572,0.0036 z"
         id="path26330" />
      <path
         style="fill:#d9d9d8;fill-opacity:1;stroke-width:0.109448"
         d="m 47.75135,84.525678 c -0.03731,-0.225735 -0.06838,-2.097293 -0.06904,-4.159015 l -0.0012,-3.748585 h 0.98503 0.98503 v 4.159015 4.159015 H 48.735185 47.8192 Z"
         id="path26369" />
      <path
         style="fill:#d9d9d8;fill-opacity:1;stroke-width:0.109448"
         d="m 53.29134,85.026643 c -1.054998,-0.162668 -2.082518,-0.839103 -2.503038,-1.647793 -0.150505,-0.28943 -0.142612,-0.3066 0.256735,-0.558552 0.226608,-0.14297 0.61992,-0.36595 0.87403,-0.495513 l 0.46202,-0.23557 0.162485,0.31421 c 0.331888,0.6418 1.602638,0.901078 2.18215,0.445233 0.600255,-0.47216 0.326795,-0.81172 -1.060787,-1.3172 -2.010602,-0.732438 -2.62091,-1.351323 -2.615522,-2.652275 0.0015,-0.370763 0.05364,-0.804083 0.115797,-0.962935 0.195595,-0.49991 0.761693,-1.04257 1.352928,-1.296913 0.478144,-0.205692 0.71233,-0.237605 1.45098,-0.197727 1.015819,0.05484 1.507727,0.252765 2.130634,0.857275 0.771228,0.748452 0.76878,0.786002 -0.08846,1.35589 -0.843252,0.560592 -0.925225,0.582657 -1.1278,0.30357 -0.52806,-0.727508 -1.839455,-0.778215 -1.839455,-0.07113 0,0.32753 0.413695,0.60598 1.378335,0.92774 0.892745,0.297775 1.758495,0.83522 2.168025,1.345875 0.291843,0.363908 0.34083,0.522165 0.375763,1.213918 0.03247,0.642975 -0.0033,0.880677 -0.186638,1.240032 -0.55462,1.087148 -1.96611,1.666548 -3.488187,1.431863 z"
         id="path26408" />
      <path
         style="fill:#d9d9d8;fill-opacity:1;stroke-width:0.109448"
         d="m 59.464978,84.863143 c -0.04013,-0.04013 -0.07297,-1.517675 -0.07297,-3.283433 V 78.36924 H 58.297535 57.203057 V 77.438935 76.50863 h 3.11926 3.119263 v 0.930305 0.930305 h -1.039755 -1.039753 v 3.283435 3.283433 h -0.912065 c -0.501635,0 -0.9449,-0.03284 -0.985029,-0.07297 z"
         id="path26447" />
      <path
         style="fill:#d9d9d8;fill-opacity:1;stroke-width:0.109448"
         d="m 64.499575,84.863143 c -0.04013,-0.04013 -0.07296,-1.94137 -0.07296,-4.224978 v -4.15201 l 2.225902,0.0386 2.225905,0.0386 0.613258,0.407243 c 0.895458,0.594645 1.228183,1.210747 1.228183,2.274225 0,1.079777 -0.0718,1.296725 -0.655376,1.980405 l -0.491647,0.575982 0.561223,1.047573 c 0.30867,0.576162 0.677485,1.248762 0.819582,1.494665 0.142102,0.245902 0.225613,0.479847 0.185583,0.519877 -0.04003,0.04003 -0.544776,0.07166 -1.121658,0.07028 l -1.048872,-0.0025 -0.749438,-1.3656 -0.749437,-1.3656 h -0.48185 -0.48185 v 0.695355 c 0,0.382445 -0.03164,0.99809 -0.07031,1.368098 l -0.07032,0.672742 h -0.896474 c -0.49306,0 -0.929308,-0.03283 -0.969438,-0.07297 z"
         id="path26486" />
      <path
         style="fill:#d9d9d8;fill-opacity:1;stroke-width:0.109448"
         d="M 71.94124,82.455845 C 71.90154,81.0917 71.86906,79.220143 71.86906,78.29683 v -1.678752 h 1.111938 1.111935 l -0.07218,2.480262 c -0.0397,1.364143 -0.07218,3.2357 -0.07218,4.159015 v 1.678753 h -0.96757 -0.967572 z"
         id="path26525" />
      <path
         style="fill:#d9d9d8;fill-opacity:1;stroke-width:0.109448"
         d="m 75.590282,80.726708 v -4.234213 l 2.216316,0.03543 c 2.112545,0.03377 2.238027,0.04786 2.679967,0.300995 0.733245,0.419983 1.23279,1.290963 1.23279,2.149428 0,0.18531 -0.07819,0.5664 -0.17375,0.846865 -0.1726,0.506552 -0.171513,0.51442 0.16417,1.18618 0.556052,1.112757 0.449062,2.103182 -0.32207,2.981455 -0.703885,0.80168 -0.970805,0.871517 -3.526383,0.92264 l -2.27104,0.04543 z"
         id="path26564" />
      <path
         style="fill:#d9d9d8;fill-opacity:1;stroke-width:0.109448"
         d="m 84.81938,84.872558 c -0.591145,-0.217523 -1.402913,-0.935555 -1.706448,-1.50941 -0.216735,-0.409753 -0.241867,-0.640358 -0.269909,-2.476608 -0.017,-1.11363 -0.04284,-2.529667 -0.05742,-3.146745 l -0.02649,-1.121965 1.065358,1.03e-4 1.065355,1e-4 0.02912,2.970705 0.02912,2.970707 0.287018,0.214225 c 0.212935,0.158928 0.462692,0.214223 0.967617,0.214223 0.595543,0 0.72039,-0.03812 0.998993,-0.30504 l 0.318395,-0.305043 v -2.87989 -2.879887 h 0.98503 0.98503 v 2.840255 c 0,3.334067 -0.06141,3.73577 -0.67817,4.43645 -0.686863,0.780317 -1.361095,1.074717 -2.55054,1.113677 -0.684698,0.02242 -1.124375,-0.019 -1.442058,-0.135902 z"
         id="path26603" />
      <path
         style="fill:#d9d9d8;fill-opacity:1;stroke-width:0.109448"
         d="M 92.62765,84.863143 C 92.58752,84.823013 92.55469,83.345468 92.55469,81.57971 V 78.36924 H 91.460208 90.36573 V 77.438935 76.50863 h 3.11926 3.119263 v 0.930305 0.930305 h -1.039755 -1.039755 v 3.283435 3.283433 H 93.61268 c -0.501635,0 -0.9449,-0.03284 -0.98503,-0.07297 z"
         id="path26642" />
      <path
         style="fill:#d9d9d8;fill-opacity:1;stroke-width:0.109448"
         d="m 97.662245,84.863143 c -0.04013,-0.04013 -0.07296,-1.911688 -0.07296,-4.159015 v -4.08605 h 1.039753 1.039755 l -5e-4,2.435212 c -2.03e-4,1.339368 -0.03254,3.210925 -0.07186,4.159015 l -0.0715,1.723803 h -0.89493 c -0.492212,0 -0.927762,-0.03284 -0.967895,-0.07297 z"
         id="path26681" />
      <path
         style="fill:#d9d9d8;fill-opacity:1;stroke-width:0.109448"
         d="m 104.17544,85.040043 c -2.29973,-0.463013 -3.9243,-2.731055 -3.53584,-4.936365 0.25074,-1.423458 1.12973,-2.61013 2.39276,-3.23034 0.58198,-0.285783 0.72955,-0.309983 1.88992,-0.309983 1.17415,0 1.30104,0.02147 1.88999,0.319895 0.78734,0.398943 1.64209,1.290068 2.02869,2.115028 0.26174,0.55851 0.29506,0.759395 0.29506,1.778815 0,1.033192 -0.0305,1.211307 -0.30213,1.764422 -0.89205,1.81646 -2.84462,2.86371 -4.65845,2.498528 z"
         id="path26720" />
      <path
         style="fill:#d9d9d8;fill-opacity:1;stroke-width:0.109448"
         d="m 110.24738,84.033163 c -0.0387,-0.49662 -0.0706,-2.368175 -0.071,-4.159015 l -7.5e-4,-3.25607 h 1.07088 1.07088 l 0.20723,0.355705 c 0.60345,1.035837 2.25521,3.474965 2.35322,3.474965 0.074,0 0.11349,-0.665855 0.11349,-1.915335 v -1.915335 h 1.05728 1.05728 l -0.072,2.708832 c -0.0396,1.489858 -0.0721,3.361413 -0.0722,4.159015 l -2e-4,1.450183 h -0.72222 c -0.90898,0 -0.88058,0.02921 -2.61594,-2.68994 l -1.31337,-2.05793 -0.0676,1.689885 c -0.0372,0.929437 -0.0741,1.99771 -0.0821,2.373935 l -0.0145,0.68405 h -0.91409 -0.91408 z"
         id="path26759" />
      <path
         style="fill:#d9d9d8;fill-opacity:1;stroke-width:0.109448"
         d="m 110.24738,84.033163 c -0.0387,-0.49662 -0.0706,-2.368175 -0.071,-4.159015 l -7.5e-4,-3.25607 h 1.07088 1.07088 l 0.20723,0.355705 c 0.60345,1.035837 2.25521,3.474965 2.35322,3.474965 0.074,0 0.11349,-0.665855 0.11349,-1.915335 v -1.915335 h 1.05728 1.05728 l -0.072,2.708832 c -0.0396,1.489858 -0.0721,3.361413 -0.0722,4.159015 l -2e-4,1.450183 h -0.72222 c -0.90898,0 -0.88058,0.02921 -2.61594,-2.68994 l -1.31337,-2.05793 -0.0676,1.689885 c -0.0372,0.929437 -0.0741,1.99771 -0.0821,2.373935 l -0.0145,0.68405 h -0.91409 -0.91408 z"
         id="path26835" />
      <path
         style="fill:#d9d9d8;fill-opacity:1;stroke-width:0.109448"
         d="m 110.35036,84.470955 c -0.0317,-0.255835 -0.0889,-2.12739 -0.12699,-4.159015 l -0.0693,-3.693862 h 1.02424 1.02424 l 1.25764,1.88486 c 0.6917,1.036672 1.32349,1.90411 1.40399,1.927637 0.10111,0.02955 0.13981,-0.05406 0.12521,-0.270507 -0.0116,-0.172305 -0.0159,-1.03974 -0.01,-1.927635 l 0.0116,-1.614355 h 1.05626 1.05626 l -0.0707,1.067115 c -0.0389,0.586915 -0.0709,2.46531 -0.0712,4.174217 l -5e-4,3.1071 -0.68257,-0.06189 c -0.61475,-0.05574 -0.72116,-0.103475 -1.07095,-0.480352 -0.2136,-0.230155 -0.94689,-1.292675 -1.62952,-2.36116 -0.68263,-1.068483 -1.2641,-1.942698 -1.29215,-1.942698 -0.028,0 -0.0347,0.31655 -0.0148,0.703443 0.0199,0.386895 -2e-4,0.739865 -0.0448,0.784377 -0.0445,0.04451 -0.0809,0.811495 -0.0809,1.704408 v 1.623475 h -0.86888 -0.86887 z"
         id="path28822" />
      <path
         style="fill:#d9d9d8;fill-opacity:1;stroke-width:0.109448"
         d="m 103.58375,84.805565 c -1.84975,-0.703972 -3.03798,-2.49166 -2.90368,-4.368575 0.10388,-1.451922 1.08841,-2.870395 2.43417,-3.507052 0.59502,-0.281498 0.77112,-0.311698 1.81792,-0.311773 1.07332,-8.2e-5 1.20854,0.02463 1.82741,0.333878 0.76623,0.382892 1.61849,1.24936 2.00907,2.042562 0.20856,0.42357 0.26508,0.73871 0.29528,1.64639 0.0353,1.060438 0.019,1.16182 -0.29476,1.832238 -0.93171,1.99103 -3.29233,3.0528 -5.18541,2.332332 z m 1.61215,-4.083195 c 0,-0.291527 -0.0366,-0.328345 -0.32684,-0.328345 -0.22829,0 -0.33834,0.05969 -0.36497,0.197928 -0.0684,0.355007 0.0702,0.530257 0.39021,0.49345 0.25444,-0.02926 0.3016,-0.08603 0.3016,-0.363033 z"
         id="path28861" />
      <path
         style="fill:#d9d9d8;fill-opacity:1;stroke-width:0.0680628"
         d=""
         id="path30575" />
      <path
         style="fill:#d9d9d8;fill-opacity:1;stroke:#838383;stroke-width:0.0773913;stroke-opacity:1"
         d="m 75.482155,80.709803 v -4.267378 l 2.225965,0.0378 c 2.52676,0.04291 2.65877,0.07039 3.268905,0.68053 0.69417,0.69417 0.915828,1.73169 0.585347,2.739867 l -0.149777,0.456918 0.301175,0.54917 c 0.275507,0.502357 0.303875,0.60958 0.33283,1.257942 0.02824,0.6325 0.01063,0.754723 -0.163813,1.135728 -0.259907,0.567715 -0.749992,1.085285 -1.267305,1.338382 -0.502359,0.24578 -1.383872,0.32561 -3.682242,0.33346 l -1.451085,0.005 z"
         id="path34002" />
    </g>
    <path
       style="display:inline;fill:#8c8c8c;fill-opacity:1;stroke-width:0.100502"
       d="m 23.0201,82.268845 v -0.703517 h 1.0397 c 1.173105,0 1.405861,0.119282 1.405861,0.720475 0,0.546287 -0.296592,0.68656 -1.45167,0.68656 H 23.0201 Z"
       id="path13588" />
    <path
       style="display:inline;fill:#8c8c8c;fill-opacity:1;stroke-width:0.100502"
       d="m 23.0201,79.052765 v -0.603017 h 0.952457 c 0.912688,0 0.959545,0.01082 1.12219,0.259047 0.128284,0.195785 0.146718,0.324488 0.07549,0.527033 -0.111291,0.316455 -0.370666,0.390912 -1.421489,0.40806 l -0.728643,0.0119 z"
       id="path13590" />
    <path
       style="display:inline;fill:#8c8c8c;fill-opacity:1;stroke-width:0.100502"
       d="m 30.658291,79.354273 v -0.904525 h 0.689964 c 0.539177,0 0.746151,0.0442 0.947058,0.202232 0.341804,0.26886 0.429972,0.702658 0.223836,1.101283 -0.200173,0.387092 -0.496401,0.505532 -1.264385,0.505532 h -0.596473 z"
       id="path13594" />
    <path
       style="display:inline;fill:#8c8c8c;fill-opacity:1;stroke-width:0.100502"
       d="m 40.97655,82.90536 c -0.03685,-0.03685 -0.067,-1.059442 -0.067,-2.272425 v -2.205422 l 1.090007,0.03731 c 1.002917,0.03433 1.12903,0.06144 1.57847,0.339303 0.92435,0.571482 1.308837,1.83012 0.860555,2.817065 -0.260825,0.574235 -0.92686,1.114295 -1.535085,1.244735 -0.550503,0.118062 -1.822292,0.14409 -1.926945,0.03944 z"
       id="path13560" />
    <path
       style="display:inline;fill:#8c8c8c;fill-opacity:1;stroke-width:0.100502"
       d="m 66.537688,79.364273 v -0.914525 h 0.862002 c 0.826695,0 0.874545,0.01255 1.168172,0.30617 0.263545,0.263545 0.297898,0.357157 0.246743,0.672385 -0.102638,0.632477 -0.343295,0.77518 -1.375078,0.815365 l -0.901839,0.03513 z"
       id="path13568" />
    <path
       style="display:inline;fill:#8c8c8c;fill-opacity:1;stroke-width:0.100502"
       d="m 77.668342,79.599905 c -0.04146,-0.04297 -0.07538,-0.319335 -0.07538,-0.614142 v -0.536015 h 0.947595 c 0.727447,0 0.984285,0.03669 1.105527,0.157935 0.200455,0.200455 0.204318,0.683482 0.0068,0.847425 -0.170519,0.14152 -1.868179,0.265385 -1.984522,0.144797 z"
       id="path13576" />
    <path
       style="display:inline;fill:#8c8c8c;fill-opacity:1;stroke-width:0.100502"
       d="m 77.659967,82.90536 c -0.03685,-0.03685 -0.067,-0.353432 -0.067,-0.703517 v -0.636515 h 1.09983 c 1.0226,0 1.110812,0.01568 1.25628,0.223367 0.24003,0.34269 0.19637,0.735668 -0.108357,0.975368 -0.22431,0.176442 -0.4062,0.2083 -1.18928,0.2083 -0.508458,0 -0.95462,-0.03015 -0.991471,-0.067 z"
       id="path13574" />
    <path
       style="display:inline;fill:#033ed3;fill-opacity:1;stroke-width:0.100502"
       d="m 104.02513,82.81748 c -1.37835,-0.617992 -1.79401,-2.338095 -0.83558,-3.457812 0.48891,-0.57118 0.99496,-0.809925 1.71097,-0.80721 1.31907,0.005 2.24018,0.941612 2.24018,2.277865 0,0.585582 -0.46234,1.424852 -0.98423,1.786617 -0.35573,0.24659 -0.54978,0.304283 -1.10552,0.32867 -0.45222,0.01985 -0.78983,-0.02232 -1.02582,-0.12813 z"
       id="path13554" />
    <path
       style="fill:#033ed3;fill-opacity:1;stroke-width:0.109448"
       d="M 41.251045,82.887573 C 41.00545,82.8415 41.004788,82.835513 41.004788,80.660033 V 78.47869 l 0.519877,5e-4 c 0.928543,0.0012 1.782465,0.195285 2.174693,0.49445 0.75655,0.57705 1.075684,1.843315 0.664815,2.637853 -0.232178,0.44898 -0.84702,0.976787 -1.297851,1.114127 -0.439039,0.133753 -1.473384,0.225955 -1.815277,0.161818 z"
       id="path18144" />
    <path
       style="fill:#033ed3;fill-opacity:1;stroke-width:0.109448"
       d="M 30.716698,79.367425 V 78.47869 h 0.48539 c 1.184754,0 1.728453,0.671618 1.118114,1.381178 -0.215768,0.250845 -0.365352,0.306735 -0.930306,0.3476 l -0.673198,0.04869 z"
       id="path18183" />
    <path
       style="fill:#033ed3;fill-opacity:1;stroke-width:0.109448"
       d="M 23.055355,79.025928 V 78.47869 h 0.796506 c 0.86247,0 1.283002,0.179368 1.283002,0.547238 0,0.36787 -0.420532,0.54724 -1.283002,0.54724 h -0.796506 z"
       id="path18222" />
    <path
       style="fill:#033ed3;fill-opacity:1;stroke-width:0.109448"
       d="m 23.055355,82.32575 v -0.673075 h 0.964111 c 1.083517,0 1.361654,0.12111 1.361654,0.592908 0,0.49128 -0.216888,0.60355 -1.316774,0.681622 l -1.008991,0.07162 z"
       id="path18261" />
    <path
       style="fill:#033ed3;fill-opacity:1;stroke-width:0.109448"
       d="M 66.615565,79.370145 V 78.47869 h 0.649563 c 0.787359,0 1.143364,0.123298 1.374489,0.47604 0.219801,0.335455 0.120915,0.789395 -0.220722,1.013245 -0.13711,0.08984 -0.59895,0.192655 -1.02631,0.228485 l -0.77702,0.06514 z"
       id="path18300" />
    <path
       style="fill:#033ed3;fill-opacity:1;stroke-width:0.109448"
       d="M 77.66979,79.025928 V 78.47869 h 0.808732 c 0.964883,0 1.3511,0.212295 1.234123,0.678368 -0.07789,0.310352 -0.440255,0.41275 -1.468255,0.414905 l -0.5746,0.0012 z"
       id="path18339" />
    <path
       style="fill:#033ed3;fill-opacity:1;stroke-width:0.109448"
       d="M 78.025492,82.892655 C 77.673925,82.843313 77.66979,82.83581 77.66979,82.247703 v -0.595028 h 1.03723 c 0.98008,0 1.046915,0.01478 1.213,0.26826 0.202405,0.308905 0.130382,0.66507 -0.166628,0.824025 -0.243975,0.130573 -1.242057,0.215885 -1.7279,0.147695 z"
       id="path18378" />
  </g>
</svg>
