<?xml version="1.0" encoding="UTF-8" standalone="no"?>
<!-- Created with Inkscape (http://www.inkscape.org/) -->

<svg
   version="1.1"
   id="svg9"
   width="400"
   height="274.81992"
   viewBox="0 0 400 274.81992"
   sodipodi:docname="bp_distrobution_logo_400x274_820.svg"
   inkscape:version="1.1 (c68e22c387, 2021-05-23)"
   xmlns:inkscape="http://www.inkscape.org/namespaces/inkscape"
   xmlns:sodipodi="http://sodipodi.sourceforge.net/DTD/sodipodi-0.dtd"
   xmlns="http://www.w3.org/2000/svg"
   xmlns:svg="http://www.w3.org/2000/svg">
  <defs
     id="defs13">
    <inkscape:path-effect
       effect="bspline"
       id="path-effect5362"
       is_visible="true"
       lpeversion="1"
       weight="33.333333"
       steps="2"
       helper_size="0"
       apply_no_weight="true"
       apply_with_weight="true"
       only_selected="false" />
  </defs>
  <sodipodi:namedview
     id="namedview11"
     pagecolor="#ffffff"
     bordercolor="#111111"
     borderopacity="1"
     inkscape:pageshadow="0"
     inkscape:pageopacity="0"
     inkscape:pagecheckerboard="1"
     showgrid="false"
     inkscape:zoom="1.2986288"
     inkscape:cx="218.30719"
     inkscape:cy="174.41474"
     inkscape:window-width="2339"
     inkscape:window-height="1045"
     inkscape:window-x="3620"
     inkscape:window-y="155"
     inkscape:window-maximized="0"
     inkscape:current-layer="layer6" />
  <g
     inkscape:groupmode="layer"
     id="layer1"
     inkscape:label="b"
     style="display:inline"
     transform="translate(-19,-18.5)"
     sodipodi:insensitive="true">
    <path
       style="display:inline;fill:#033ed3;fill-opacity:1;stroke:#838383;stroke-width:0.40201;stroke-opacity:1"
       d="m 153.94501,162.72111 c 4.54683,-9.7457 5.7235,-12.16081 5.92488,-12.16081 0.37592,0 17.92415,12.92796 17.92258,13.20374 -8.1e-4,0.14498 -0.35998,0.85154 -0.79811,1.57013 l -0.79661,1.30653 h -12.04072 -12.04071 z"
       id="path13600" />
    <path
       style="display:inline;fill:#033ed3;fill-opacity:1;stroke:#838383;stroke-width:0.40201;stroke-opacity:1"
       d="m 67.643216,220.74407 c 0,-0.14142 12.714987,-27.64628 17.577311,-38.02296 2.869656,-6.12413 19.999943,-42.99251 22.414493,-48.24121 1.37314,-2.98493 6.0721,-13.11558 10.44212,-22.51256 14.14537,-30.417201 20.87313,-44.89698 28.95191,-62.311561 4.35934,-9.396985 9.38132,-20.20603 11.15995,-24.020101 l 3.23386,-6.934673 h 20.08786 c 15.91589,0 20.04363,0.104365 19.87487,0.502513 -0.11715,0.276381 -5.31109,11.447236 -11.5421,24.82412 -6.23101,13.376885 -14.18218,30.472362 -17.66927,37.98995 -3.48709,7.517588 -12.43924,26.783922 -19.89367,42.814072 -25.66737,55.19558 -27.95392,60.13798 -27.95392,60.42272 0,0.1571 14.31017,0.23932 31.80038,0.18271 l 31.80038,-0.10292 7.21405,-12.23068 c 6.88103,-11.66609 7.18067,-12.26176 6.49108,-12.90361 -0.39763,-0.3701 -6.15011,-4.6183 -12.78327,-9.44046 -12.94115,-9.4079 -16.28478,-11.85224 -16.8266,-12.30094 -0.1893,-0.15678 1.63831,-4.50805 4.06137,-9.6695 2.42306,-5.16145 5.65332,-12.0522 7.17836,-15.31278 1.52504,-3.26058 2.90993,-5.92892 3.07755,-5.92965 0.3344,-0.002 2.72114,1.70481 17.9867,12.85856 5.63819,4.11954 17.25349,12.59686 25.81177,18.8385 l 15.5605,11.34844 -1.33003,2.8987 c -0.73152,1.59428 -6.0864,13.02935 -11.89973,25.41126 -5.81332,12.38191 -12.60387,26.85427 -15.09011,32.1608 l -4.52042,9.64825 -72.6077,0.10159 c -39.93423,0.0559 -72.607694,0.025 -72.607694,-0.0686 z"
       id="path13596" />
  </g>
  <g
     inkscape:groupmode="layer"
     id="layer3"
     inkscape:label="p"
     style="display:inline"
     transform="translate(-19,-18.5)"
     sodipodi:insensitive="true">
    <path
       style="display:inline;fill:#b62200;fill-opacity:1;stroke:#b62200;stroke-width:0.40201;stroke-opacity:1"
       d="m 236.88945,220.70201 c 0,-0.11553 2.37309,-5.31653 5.27354,-11.55779 2.90046,-6.24126 12.78208,-27.53869 21.95917,-47.32764 9.1771,-19.78894 21.92958,-47.28643 28.33886,-61.10552 16.73006,-36.071836 21.61436,-46.661609 21.61436,-46.862698 0,-0.09753 -14.30261,-0.131007 -31.78358,-0.0744 l -31.78357,0.102922 -7.22713,12.173741 c -3.97493,6.695554 -7.12633,12.33684 -7.00313,12.536185 0.1232,0.199349 3.52224,2.763349 7.55342,5.697781 9.92359,7.223723 22.5771,16.478259 22.7321,16.625829 0.14669,0.13966 -13.93604,30.42246 -14.33306,30.82109 -0.14608,0.14667 -3.16969,-1.84328 -6.71913,-4.42212 -5.76809,-4.19079 -52.40502,-38.213619 -52.80271,-38.520924 -0.0884,-0.06832 1.48341,-3.609668 3.49295,-7.86966 2.00954,-4.259992 4.40929,-9.37358 5.33278,-11.36353 0.92349,-1.989949 2.70952,-5.788944 3.96897,-8.442211 1.25945,-2.653266 6.2518,-13.281407 11.09411,-23.61809 l 8.80421,-18.79397 h 72.67352 72.67353 l -0.94754,2.110553 c -0.78754,1.754173 -7.91968,17.147932 -29.19573,63.015075 -1.28203,2.763819 -4.22479,9.095478 -6.53946,14.070352 -2.31468,4.974875 -7.55956,16.281405 -11.6553,25.125625 -16.84341,36.37114 -23.23475,50.15403 -29.5473,63.7186 -3.65281,7.84924 -8.22269,17.70854 -10.15528,21.90954 -1.9326,4.20101 -4.00042,8.6784 -4.59517,9.94975 l -1.08137,2.31156 h -20.07103 c -11.03907,0 -20.07103,-0.0945 -20.07103,-0.21005 z"
       id="path13598" />
    <path
       style="display:inline;fill:#b62200;fill-opacity:1;stroke:#b62200;stroke-width:0.40201;stroke-opacity:1"
       d="m 274.47739,85.194645 c -1.98995,-1.446649 -5.73475,-4.184313 -8.32177,-6.083694 -2.58702,-1.899381 -4.92722,-3.591582 -5.20045,-3.760446 -0.38253,-0.236419 -0.32685,-0.683852 0.24212,-1.9456 l 0.73889,-1.638573 h 12.15479 12.15479 l -3.67313,8.026166 c -2.02022,4.414392 -3.85404,8.027574 -4.07514,8.029291 -0.22111,0.0016 -2.03015,-1.180495 -4.0201,-2.627144 z"
       id="path13602" />
  </g>
  <g
     inkscape:groupmode="layer"
     id="layer4"
     inkscape:label="text"
     style="display:inline"
     transform="translate(-19,-18.5)"
     sodipodi:insensitive="true">
    <path
       style="display:inline;fill:#8c8c8c;fill-opacity:1;stroke-width:0.40201"
       d="M 21.512563,291.74715 19,291.62747 V 267.12403 242.6206 h 12.37785 c 12.03491,0 14.275113,0.18225 17.471396,1.42133 0.538475,0.20875 0.703518,0.0668 0.703518,-0.60496 v -0.8777 l 12.361809,0.14498 c 11.86796,0.13917 12.458171,0.18291 14.773869,1.09491 3.161451,1.24507 5.293435,2.7331 7.647397,5.33754 6.766143,7.4861 6.500905,18.98173 -0.60213,26.09704 -2.432684,2.43689 -4.564214,3.70663 -8.050292,4.7955 l -2.211055,0.69062 -0.111847,5.47298 c -0.08109,3.96785 -0.246923,5.47865 -0.603016,5.49358 -0.270142,0.0113 -5.546826,0.01 -11.725965,-0.004 -7.659715,-0.0165 -11.321097,-0.16386 -11.505994,-0.46303 -0.195374,-0.31612 -0.875756,-0.30981 -2.433544,0.0226 -2.020654,0.43116 -19.771396,0.78146 -25.579433,0.50479 z"
       id="path13584" />
    <path
       style="display:inline;fill:#8c8c8c;fill-opacity:1;stroke-width:0.40201"
       d="m 409.56551,292.48393 c -0.73482,-0.81196 -1.09754,-0.83513 -12.64594,-0.80786 -6.53918,0.0154 -13.9246,0.0195 -16.41203,0.009 l -4.52262,-0.0192 v -1.20603 c 0,-1.46535 -0.28015,-1.48504 -2.81973,-0.19814 -2.77587,1.40665 -6.46117,2.19527 -10.29122,2.20225 -4.04642,0.007 -6.72239,-0.48524 -9.93013,-1.82801 -3.94982,-1.6534 -3.89359,-1.65018 -3.89359,-0.22299 v 1.25292 l -5.92965,0.0375 c -5.23173,0.033 -23.66456,0.0211 -34.17085,-0.0222 l -3.71859,-0.0153 v -3.41709 c 0,-1.87939 -0.1182,-3.41708 -0.26267,-3.41708 -0.14446,0 -1.20076,0.88721 -2.34732,1.97158 -7.36001,6.9608 -19.61778,7.62431 -28.32755,1.53338 l -1.3898,-0.97192 -1.82628,1.29379 c -1.00446,0.71158 -2.91171,1.70973 -4.23834,2.2181 l -2.41206,0.9243 -42.21106,-0.0428 C 199,291.7345 178.33166,291.7041 176.28643,291.69052 l -3.71859,-0.0247 v -1.60804 c 0,-0.88442 -0.11567,-1.60804 -0.25705,-1.60804 -0.14137,0 -1.09112,0.5116 -2.11055,1.13689 -2.98753,1.83248 -5.55392,2.54828 -9.94798,2.77462 -3.00012,0.15453 -4.88035,0.0306 -7.13128,-0.47023 -1.6813,-0.37405 -3.22126,-0.57852 -3.42213,-0.45438 -0.31502,0.1947 -10.51657,0.31828 -20.6486,0.25013 l -3.11558,-0.0209 v -1.64154 c 0,-0.90285 -0.13568,-1.5734 -0.3015,-1.4901 -6.31249,3.17065 -8.0345,3.3384 -32.361813,3.15239 l -2.713568,-0.0207 v -24.55515 -24.55515 l 13.567841,0.16175 c 14.60499,0.17411 15.36603,0.27232 19.8995,2.56799 l 1.90954,0.96697 v -1.81582 -1.81582 h 11.8258 c 9.10254,0 11.86469,0.11572 11.99471,0.50252 0.13249,0.39414 0.50816,0.37729 1.74205,-0.0782 1.33212,-0.49171 6.43849,-0.56341 33.33192,-0.46799 30.29674,0.10748 33.90123,0.22801 36.50858,1.22078 1.48264,0.56453 1.48137,0.56487 1.48137,-0.39319 0,-0.82173 0.0599,-0.82375 20.80402,-0.70352 16.09547,0.0933 21.01009,0.23823 21.7145,0.64043 0.77135,0.4404 0.94687,0.42504 1.14854,-0.10051 0.21241,-0.55354 4.67131,-0.62035 41.40107,-0.62035 h 41.16302 v 1.60804 c 0,0.88443 0.10981,1.60804 0.24403,1.60804 0.13422,0 1.37027,-0.5375 2.74678,-1.19444 6.44536,-3.07609 15.42138,-2.93198 21.85639,0.35093 0.90939,0.46393 1.75109,0.84351 1.87045,0.84351 0.11936,0 0.21702,-0.72361 0.21702,-1.60804 v -1.60804 h 4.02011 4.0201 v -1.60804 c 0,-0.88442 0.15686,-1.60804 0.34858,-1.60804 0.19173,0 0.82746,0.72362 1.41274,1.60804 l 1.06416,1.60804 H 402.9253 419 v 24.52262 24.52261 h -4.03305 c -3.7033,0 -4.05807,0.0676 -4.33899,0.82702 l -0.30594,0.82702 z"
       id="path13205" />
    <path
       style="fill:#033ed3;fill-opacity:1;stroke-width:0.437793"
       d="m 409.51809,292.10633 c -0.36195,-0.22892 -7.32611,-0.41158 -15.9647,-0.41873 -8.42747,-0.007 -15.75487,-0.12858 -16.28311,-0.27022 -0.54083,-0.14503 -1.019,-0.6684 -1.09448,-1.19795 -0.17383,-1.21953 -1.1083,-1.13926 -4.73085,0.40641 -2.41237,1.02931 -3.61727,1.24365 -7.91347,1.40774 -4.91912,0.18789 -5.20047,0.14755 -9.58851,-1.37465 -2.48637,-0.86252 -4.68773,-1.46497 -4.89191,-1.33877 -0.20419,0.12618 -0.37125,0.59074 -0.37125,1.03234 0,0.4416 -0.31162,0.92249 -0.69249,1.06864 -0.90055,0.34558 -40.37228,0.33591 -41.66379,-0.0102 -0.90874,-0.24353 -0.98503,-0.51434 -0.98503,-3.49635 0,-1.7778 -0.12781,-3.23237 -0.28403,-3.23237 -0.15621,0 -1.38663,0.90772 -2.73426,2.01716 -4.6637,3.83942 -8.9398,5.41155 -14.74224,5.42009 -4.24309,0.006 -7.15177,-0.78565 -11.66947,-3.17703 -3.13226,-1.65802 -3.43872,-1.73824 -4.15901,-1.08869 -0.42768,0.38568 -2.24957,1.40591 -4.04867,2.26718 l -3.27108,1.56595 h -45.17847 c -24.84816,0 -45.4901,-0.11958 -45.87096,-0.26574 -0.4432,-0.17007 -0.6925,-0.80051 -0.6925,-1.75116 0,-0.81699 -0.0957,-1.48544 -0.21261,-1.48544 -0.11693,0 -1.4796,0.67216 -3.02815,1.49369 -3.97345,2.10795 -6.92991,2.62737 -12.51479,2.19872 -2.53095,-0.19425 -10.0491,-0.29701 -16.70699,-0.22834 -6.65789,0.0687 -12.51881,-0.006 -13.02428,-0.16684 -0.50546,-0.16043 -0.91903,-0.65632 -0.91903,-1.10197 0,-2.04175 -0.36406,-2.17968 -2.85058,-1.08002 -3.81809,1.68854 -7.41112,2.06291 -20.32117,2.11732 l -12.070431,0.0509 -0.113134,-24.43456 -0.113137,-24.43456 11.276812,0.26068 c 15.85372,0.36646 16.90758,0.4771 20.84391,2.18829 l 3.34773,1.45532 v -1.98349 -1.98349 l 11.49201,0.31001 c 6.32061,0.17051 12.96956,0.24634 14.77545,0.1685 1.80589,-0.0778 16.87685,-0.11523 33.49102,-0.0831 28.45768,0.055 32.13753,0.18728 36.00831,1.29429 0.70643,0.20203 0.98503,0.0974 0.98503,-0.36979 0,-0.50713 0.80037,-0.69821 3.61178,-0.86226 5.59722,-0.32661 36.26177,0.12655 37.94929,0.56082 1.02709,0.2643 1.69851,0.22472 2.11986,-0.12496 0.45715,-0.3794 11.13854,-0.56032 41.29089,-0.69939 l 40.67421,-0.1876 0.007,1.25973 c 0.0121,2.27158 0.41343,2.38662 3.59344,1.03002 6.87808,-2.93419 14.15877,-2.87412 21.05043,0.1737 1.33359,0.58978 2.53845,0.95857 2.67748,0.81954 0.13904,-0.13903 0.25279,-0.90947 0.25279,-1.71209 v -1.4593 h 3.94012 3.94012 v -1.31338 c 0,-1.66023 0.42332,-1.66023 1.53227,0 l 0.87558,1.31086 16.08882,0.001 16.08882,10e-4 v 24.2372 24.2372 l -3.82331,0.31022 c -2.10282,0.17062 -4.03024,0.48195 -4.28314,0.69185 -0.263,0.21827 -0.73466,0.20781 -1.10184,-0.0244 z"
       id="path18066" />
    <path
       style="fill:#033ed3;fill-opacity:1;stroke-width:0.437793"
       d="m 19.570391,291.43257 c -0.428149,-0.20064 -0.547238,-5.55035 -0.547238,-24.58279 v -24.32633 l 12.805388,0.25256 c 9.814934,0.19358 13.316577,0.41222 14.994343,0.93626 2.789229,0.87119 2.845642,0.86722 2.845642,-0.19983 0,-0.88433 0.117953,-0.89018 12.1487,-0.60262 13.335642,0.31875 14.832145,0.57492 18.632209,3.18943 6.178661,4.25104 9.449693,11.58264 8.26082,18.51561 -1.293013,7.54028 -6.21961,13.11815 -13.478323,15.26012 l -1.798529,0.53072 -0.238464,5.17582 c -0.131156,2.8467 -0.384889,5.41273 -0.563844,5.70229 -0.249423,0.40357 -2.941784,0.4404 -11.534524,0.15776 -6.165033,-0.20278 -11.898671,-0.35669 -12.741418,-0.34202 -0.842748,0.0147 -7.540951,0.1533 -14.884896,0.30807 -7.343945,0.15477 -13.598885,0.16599 -13.899866,0.025 z"
       id="path18105" />
  </g>
  <g
     inkscape:groupmode="layer"
     id="layer5"
     inkscape:label="text 1"
     style="display:inline"
     transform="translate(-19,-18.5)"
     sodipodi:insensitive="true">
    <path
       style="display:inline;fill:#d9d9d8;fill-opacity:1;stroke-width:0.40201"
       d="m 45.201933,284.01457 c 6.914059,-1.92035 10.101384,-10.42195 6.111518,-16.30135 -1.039655,-1.53202 -1.044376,-1.57188 -0.399376,-3.37173 0.924699,-2.58035 0.842709,-6.19198 -0.188951,-8.3231 -1.048716,-2.16636 -3.847408,-4.66621 -5.91883,-5.28682 -0.988282,-0.2961 -4.677829,-0.47278 -9.873036,-0.47278 h -8.295067 v 17.08543 17.08543 l 8.542714,-0.002 c 4.698492,-0.001 9.207955,-0.18701 10.021028,-0.41284 z"
       id="path13586" />
    <path
       style="display:inline;fill:#d9d9d8;fill-opacity:1;stroke-width:0.40201"
       d="m 65.544,278.94947 0.111843,-5.27918 3.707252,-0.17265 c 4.301966,-0.20035 6.522477,-1.03116 8.836258,-3.30609 2.235537,-2.19801 3.208981,-4.39307 3.426754,-7.72713 0.159754,-2.44586 0.0411,-3.18812 -0.803317,-5.02512 -1.339015,-2.913 -2.657918,-4.38018 -5.206621,-5.79198 l -2.143807,-1.18752 -8.140704,-0.13014 -8.140703,-0.13013 v 16.84705 c 0,9.26588 0.126717,16.97377 0.281592,17.12865 0.154874,0.15487 2.009145,0.23025 4.120603,0.1675 l 3.839011,-0.11409 z"
       id="path13592" />
    <path
       style="display:inline;fill:#d9d9d8;fill-opacity:1;stroke-width:0.40201"
       d="m 116.36715,283.98157 c 13.21287,-2.77907 18.34756,-18.54939 9.19162,-28.23045 -4.32093,-4.56874 -7.51681,-5.49233 -19.00504,-5.49233 h -8.35775 v 16.81742 c 0,9.24959 0.120603,16.93803 0.268008,17.08543 0.450416,0.45042 15.631512,0.29773 17.903162,-0.18007 z"
       id="path13558" />
    <path
       style="display:inline;fill:#d9d9d8;fill-opacity:1;stroke-width:0.40201"
       d="m 141.91898,267.44472 0.10492,-16.78392 h -4.22552 -4.22552 v 16.61642 c 0,9.13903 0.12672,16.74313 0.2816,16.89801 0.15487,0.15487 2.00914,0.23025 4.1206,0.1675 l 3.83901,-0.11409 z"
       id="path13562" />
    <path
       style="display:inline;fill:#d9d9d8;fill-opacity:1;stroke-width:0.40201"
       d="m 164.12563,284.24086 c 2.69944,-0.96723 4.74604,-2.55058 5.95507,-4.60712 0.931,-1.58363 1.07933,-2.28122 1.07449,-5.05334 -0.006,-3.5789 -0.4852,-4.82963 -2.67894,-6.99573 -1.42342,-1.40549 -4.72456,-3.22196 -7.3657,-4.05304 -3.71088,-1.16768 -5.43531,-2.11015 -5.6856,-3.10741 -0.41453,-1.65162 0.86974,-2.37181 3.90126,-2.18775 1.05651,0.0641 2.24894,0.96408 3.33841,2.51952 l 0.61711,0.88105 3.33452,-1.98871 c 1.83399,-1.0938 3.3888,-2.27057 3.45513,-2.61504 0.20749,-1.07741 -2.8641,-4.49312 -5.1729,-5.75244 -1.86504,-1.01727 -2.71922,-1.213 -5.91414,-1.35517 -4.39828,-0.19572 -6.54924,0.44196 -9.01992,2.67408 -2.3469,2.12028 -3.12522,3.94013 -3.12522,7.30728 0,3.43074 0.82371,5.29614 3.25918,7.38081 1.56792,1.34208 3.15237,2.05785 9.51975,4.30054 1.45256,0.51162 2.70983,1.23065 2.95593,1.6905 1.08303,2.02365 -1.70407,3.83907 -5.10983,3.32834 -1.88533,-0.28272 -3.98277,-1.73657 -4.39948,-3.04951 -0.13727,-0.4325 -0.4938,-0.78636 -0.79229,-0.78636 -0.41902,0 -6.33765,3.2492 -6.97045,3.82662 -0.30199,0.27557 1.33352,2.92218 2.68701,4.34814 3.64329,3.83841 10.6351,5.26598 16.13661,3.29474 z"
       id="path13548" />
    <path
       style="display:inline;fill:#d9d9d8;fill-opacity:1;stroke-width:0.40201"
       d="m 188.55331,271.26382 0.10607,-12.96483 h 4.21553 4.21554 v -4.02574 -4.02575 l -12.76382,0.10615 -12.76382,0.10615 v 3.81909 3.8191 l 4.32161,0.1141 4.32161,0.1141 v 12.78373 c 0,7.03104 0.12672,12.91043 0.28159,13.06531 0.15488,0.15487 2.00915,0.23025 4.12061,0.1675 l 3.83901,-0.11409 z"
       id="path13564" />
    <path
       style="display:inline;fill:#d9d9d8;fill-opacity:1;stroke-width:0.40201"
       d="m 209.06192,278.90201 0.11217,-5.32663 h 1.75406 1.75406 l 2.99291,5.32663 2.9929,5.32663 4.6886,0.11327 c 3.42507,0.0827 4.68861,-0.0159 4.68861,-0.36604 0,-0.26361 -1.44724,-3.07731 -3.21608,-6.25267 -1.76885,-3.17536 -3.21608,-5.86592 -3.21608,-5.97903 0,-0.1131 0.63194,-0.83759 1.40431,-1.60995 2.48108,-2.48109 3.20926,-4.3461 3.20834,-8.21713 -8.1e-4,-2.92861 -0.15522,-3.71131 -1.08094,-5.47528 -1.17229,-2.23381 -2.71032,-3.71454 -5.29394,-5.0967 -1.53817,-0.82288 -2.2856,-0.89435 -10.59958,-1.01345 l -8.94473,-0.12813 v 16.84505 c 0,9.26478 0.12654,16.97159 0.28119,17.12624 0.15465,0.15465 2.09937,0.23003 4.32161,0.1675 l 4.04042,-0.11368 z"
       id="path13566" />
    <path
       style="display:inline;fill:#d9d9d8;fill-opacity:1;stroke-width:0.40201"
       d="m 239.20542,267.44472 0.10491,-16.78392 h -4.42652 -4.42652 v 16.61642 c 0,9.13903 0.12653,16.74295 0.28118,16.8976 0.15465,0.15465 2.09938,0.23003 4.32161,0.1675 l 4.04042,-0.11368 z"
       id="path13570" />
    <path
       style="display:inline;fill:#d9d9d8;fill-opacity:1;stroke-width:0.40201"
       d="m 264.07022,283.83569 c 2.63961,-0.78388 5.08268,-2.93514 6.40681,-5.64156 0.93314,-1.90726 1.05416,-2.58289 0.92409,-5.15869 -0.1246,-2.46751 -0.35995,-3.30226 -1.405,-4.98339 l -1.25532,-2.01939 0.79929,-2.3593 c 1.84937,-5.45888 -1.15422,-11.52911 -6.42964,-12.99422 -0.82356,-0.22872 -5.25115,-0.41687 -9.83909,-0.4181 l -8.34171,-0.002 v 17.08543 17.08543 h 8.57025 c 6.38943,0 9.0792,-0.15114 10.57032,-0.59396 z"
       id="path13572" />
    <path
       style="display:inline;fill:#d9d9d8;fill-opacity:1;stroke-width:0.40201"
       d="m 293.3599,283.99759 c 3.1123,-1.16446 6.22835,-4.19471 7.17727,-6.97965 0.57221,-1.67934 0.67389,-3.81696 0.67389,-14.16744 v -12.1897 h -4.22111 -4.22111 v 11.68922 11.68922 l -1.1751,1.1751 c -1.05776,1.05776 -1.43606,1.17511 -3.78825,1.17511 -2.22477,0 -2.79698,-0.15468 -3.85002,-1.04076 l -1.23688,-1.04077 V 262.48437 250.6608 h -4.4524 -4.45239 l 0.13624,12.56282 c 0.11623,10.71685 0.2358,12.7843 0.81373,14.07019 2.99898,6.67265 10.98488,9.55151 18.59613,6.70378 z"
       id="path13550" />
    <path
       style="display:inline;fill:#d9d9d8;fill-opacity:1;stroke-width:0.40201"
       d="m 321.21662,271.26382 0.10608,-12.96483 h 4.21553 4.21554 v -4.0201 -4.0201 h -12.66332 -12.66331 v 4.0201 4.0201 h 4.2211 4.22111 v 12.79732 c 0,7.03853 0.12671,12.92404 0.28159,13.07892 0.15487,0.15487 2.00914,0.23025 4.1206,0.1675 l 3.83901,-0.11409 z"
       id="path13578" />
    <path
       style="display:inline;fill:#d9d9d8;fill-opacity:1;stroke-width:0.40201"
       d="m 341.71798,267.44472 0.10491,-16.78392 h -4.42652 -4.42652 v 16.61642 c 0,9.13903 0.12653,16.74295 0.28119,16.8976 0.15464,0.15465 2.09937,0.23003 4.3216,0.1675 l 4.04043,-0.11368 z"
       id="path13580" />
    <path
       style="display:inline;fill:#d9d9d8;fill-opacity:1;stroke-width:0.40201"
       d="m 365.98031,284.82954 c 9.12697,-1.70337 15.48304,-10.76863 14.01103,-19.98304 -0.90995,-5.69606 -4.47784,-10.56997 -9.57428,-13.07894 -2.32799,-1.14607 -3.09223,-1.3104 -6.71858,-1.44463 -4.99882,-0.18505 -7.48556,0.44681 -11.00318,2.79578 -10.99885,7.34476 -9.84798,24.21536 2.05119,30.06843 3.88239,1.90971 7.20145,2.39496 11.23382,1.6424 z"
       id="path13552" />
    <path
       style="display:inline;fill:#d9d9d8;fill-opacity:1;stroke-width:0.40201"
       d="m 392.06533,274.99381 0.201,-9.23484 5.56188,8.73785 c 3.05903,4.80581 5.83774,9.0137 6.17491,9.35088 0.47075,0.47075 1.37251,0.5861 3.88536,0.49699 l 3.27232,-0.11605 0.10492,-16.78392 0.10491,-16.78392 h -4.22552 -4.22551 V 258.5 c 0,4.31156 -0.14783,7.8392 -0.32852,7.8392 -0.18068,0 -2.57766,-3.52703 -5.32663,-7.83784 l -4.99812,-7.83784 -4.32161,-0.001 -4.3216,-0.001 v 16.61642 c 0,9.13903 0.12671,16.74313 0.28159,16.89801 0.15487,0.15487 2.00914,0.23025 4.1206,0.1675 l 3.83901,-0.11409 z"
       id="path13582" />
    <path
       style="fill:#d9d9d8;fill-opacity:1;stroke-width:0.437793"
       d="m 26.903391,267.4391 v -16.90458 l 7.989687,0.002 c 4.394327,0.001 8.742839,0.21158 9.663359,0.46719 0.974627,0.27064 2.55633,1.32102 3.786956,2.51486 3.002316,2.91256 3.744591,6.03834 2.453023,10.3299 -0.60313,2.00405 -0.581918,2.1584 0.656342,4.77583 2.038936,4.3099 1.60731,8.36585 -1.244875,11.69799 -2.866318,3.34864 -3.920189,3.63317 -14.220327,3.83921 l -9.084165,0.18173 z"
       id="path26252" />
    <path
       style="fill:#d9d9d8;fill-opacity:1;stroke-width:0.437793"
       d="m 57.840627,283.95257 c -0.160526,-0.16053 -0.291863,-7.74525 -0.291863,-16.85496 v -16.56309 h 7.678786 c 6.752157,0 7.880944,0.10313 9.35405,0.85465 6.18439,3.15505 8.467908,9.56292 5.540273,15.54679 -2.100631,4.29353 -5.985668,6.36369 -11.942633,6.36369 h -2.750235 v 5.47239 5.47239 h -3.648261 c -2.006541,0 -3.779594,-0.13134 -3.940117,-0.29186 z"
       id="path26291" />
    <path
       style="fill:#d9d9d8;fill-opacity:1;stroke-width:0.437793"
       d="m 98.550521,279.97597 c -0.155462,-2.34766 -0.283679,-9.95439 -0.284925,-16.90386 l -0.0024,-12.63539 9.303054,0.19485 c 8.31212,0.17409 9.57105,0.29918 11.8189,1.17428 3.27841,1.27632 6.78916,4.51405 8.68401,8.00869 1.43275,2.64241 1.49609,2.95385 1.49609,7.35604 0,4.20027 -0.11101,4.82291 -1.28694,7.21796 -2.54189,5.17719 -7.48383,8.70056 -13.24515,9.44318 -1.63875,0.21123 -5.95418,0.39051 -9.58983,0.39839 l -6.610285,0.0143 z"
       id="path26330" />
    <path
       style="fill:#d9d9d8;fill-opacity:1;stroke-width:0.437793"
       d="m 134.0054,282.60271 c -0.14924,-0.90294 -0.27352,-8.38917 -0.27617,-16.63606 l -0.005,-14.99434 h 3.94012 3.94012 v 16.63606 16.63606 h -3.66394 -3.66394 z"
       id="path26369" />
    <path
       style="fill:#d9d9d8;fill-opacity:1;stroke-width:0.437793"
       d="m 156.16536,284.60657 c -4.21999,-0.65067 -8.33007,-3.35641 -10.01215,-6.59117 -0.60202,-1.15772 -0.57045,-1.2264 1.02694,-2.23421 0.90643,-0.57188 2.47968,-1.4638 3.49612,-1.98205 l 1.84808,-0.94228 0.64994,1.25684 c 1.32755,2.5672 6.41055,3.60431 8.7286,1.78093 2.40102,-1.88864 1.30718,-3.24688 -4.24315,-5.2688 -8.04241,-2.92975 -10.48364,-5.40529 -10.46209,-10.6091 0.006,-1.48305 0.21458,-3.21633 0.46319,-3.85174 0.78238,-1.99964 3.04677,-4.17028 5.41171,-5.18765 1.91258,-0.82277 2.84932,-0.95042 5.80392,-0.79091 4.06328,0.21937 6.03091,1.01106 8.52254,3.4291 3.08491,2.99381 3.07512,3.14401 -0.35382,5.42356 -3.37301,2.24237 -3.7009,2.33063 -4.5112,1.21428 -2.11224,-2.91003 -7.35782,-3.11286 -7.35782,-0.28451 0,1.31012 1.65478,2.42392 5.51334,3.71096 3.57098,1.1911 7.03398,3.34088 8.6721,5.3835 1.16737,1.45563 1.36332,2.08866 1.50305,4.85567 0.12987,2.5719 -0.0132,3.52271 -0.74655,4.96013 -2.21848,4.34859 -7.86444,6.66619 -13.95275,5.72745 z"
       id="path26408" />
    <path
       style="fill:#d9d9d8;fill-opacity:1;stroke-width:0.437793"
       d="m 180.85991,283.95257 c -0.16052,-0.16053 -0.29186,-6.0707 -0.29186,-13.13373 v -12.84188 h -4.37791 -4.37791 v -3.72122 -3.72122 h 12.47704 12.47705 v 3.72122 3.72122 h -4.15902 -4.15901 v 13.13374 13.13373 h -3.64826 c -2.00654,0 -3.7796,-0.13134 -3.94012,-0.29186 z"
       id="path26447" />
    <path
       style="fill:#d9d9d8;fill-opacity:1;stroke-width:0.437793"
       d="m 200.9983,283.95257 c -0.16052,-0.16053 -0.29186,-7.76548 -0.29186,-16.89991 v -16.60804 l 8.90361,0.1544 8.90362,0.1544 2.45303,1.62897 c 3.58183,2.37858 4.91273,4.84299 4.91273,9.0969 0,4.31911 -0.28718,5.1869 -2.6215,7.92162 l -1.96659,2.30393 2.24489,4.19029 c 1.23468,2.30465 2.70994,4.99505 3.27833,5.97866 0.56841,0.98361 0.90245,1.91939 0.74233,2.07951 -0.16012,0.16012 -2.1791,0.28664 -4.48663,0.28114 l -4.19549,-0.01 -2.99775,-5.4624 -2.99775,-5.4624 h -1.9274 -1.9274 v 2.78142 c 0,1.52978 -0.12657,3.99236 -0.28126,5.47239 l -0.28126,2.69097 h -3.5859 c -1.97224,0 -3.71723,-0.13134 -3.87775,-0.29187 z"
       id="path26486" />
    <path
       style="fill:#d9d9d8;fill-opacity:1;stroke-width:0.437793"
       d="m 230.76496,274.32338 c -0.1588,-5.45658 -0.28873,-12.94281 -0.28873,-16.63606 v -6.71501 h 4.44775 4.44774 l -0.28873,9.92105 c -0.1588,5.45657 -0.28873,12.9428 -0.28873,16.63606 v 6.71501 h -3.87028 -3.87029 z"
       id="path26525" />
    <path
       style="fill:#d9d9d8;fill-opacity:1;stroke-width:0.437793"
       d="m 245.36113,267.40683 v -16.93685 l 8.86526,0.14172 c 8.45018,0.13508 8.95211,0.19145 10.71987,1.20398 2.93298,1.67993 4.93116,5.16385 4.93116,8.59771 0,0.74124 -0.31275,2.2656 -0.695,3.38746 -0.6904,2.02621 -0.68605,2.05768 0.65668,4.74472 2.22421,4.45103 1.79625,8.41273 -1.28828,11.92582 -2.81554,3.20672 -3.88322,3.48607 -14.10553,3.69056 l -9.08416,0.18172 z"
       id="path26564" />
    <path
       style="fill:#d9d9d8;fill-opacity:1;stroke-width:0.437793"
       d="m 282.27752,283.99023 c -2.36458,-0.87009 -5.61165,-3.74222 -6.82579,-6.03764 -0.86694,-1.63901 -0.96747,-2.56143 -1.07964,-9.90643 -0.068,-4.45452 -0.17137,-10.11867 -0.22967,-12.58698 l -0.10598,-4.48786 4.26143,4.1e-4 4.26142,4e-4 0.11648,11.88282 0.11649,11.88283 1.14807,0.8569 c 0.85174,0.63571 1.85077,0.85689 3.87047,0.85689 2.38217,0 2.88156,-0.15249 3.99597,-1.22016 l 1.27358,-1.22017 v -11.51956 -11.51955 h 3.94012 3.94012 v 11.36102 c 0,13.33627 -0.24562,14.94308 -2.71268,17.7458 -2.74745,3.12127 -5.44438,4.29887 -10.20216,4.45471 -2.73879,0.0897 -4.4975,-0.076 -5.76823,-0.54361 z"
       id="path26603" />
    <path
       style="fill:#d9d9d8;fill-opacity:1;stroke-width:0.437793"
       d="m 313.5106,283.95257 c -0.16053,-0.16053 -0.29186,-6.0707 -0.29186,-13.13373 v -12.84188 h -4.37791 -4.37791 v -3.72122 -3.72122 h 12.47704 12.47705 v 3.72122 3.72122 h -4.15902 -4.15902 v 13.13374 13.13373 h -3.64825 c -2.00654,0 -3.7796,-0.13134 -3.94012,-0.29186 z"
       id="path26642" />
    <path
       style="fill:#d9d9d8;fill-opacity:1;stroke-width:0.437793"
       d="m 333.64898,283.95257 c -0.16052,-0.16053 -0.29185,-7.64675 -0.29185,-16.63606 v -16.3442 h 4.15901 4.15902 l -0.002,9.74085 c -8.1e-4,5.35747 -0.13015,12.8437 -0.28744,16.63606 l -0.28599,6.89521 h -3.57972 c -1.96885,0 -3.71105,-0.13134 -3.87158,-0.29186 z"
       id="path26681" />
    <path
       style="fill:#d9d9d8;fill-opacity:1;stroke-width:0.437793"
       d="m 359.70177,284.66017 c -9.19894,-1.85205 -15.6972,-10.92422 -14.14336,-19.74546 1.00294,-5.69383 4.51889,-10.44052 9.57103,-12.92136 2.32793,-1.14313 2.91818,-1.23993 7.55969,-1.23993 4.69659,0 5.20414,0.0859 7.55994,1.27958 3.14936,1.59577 6.56836,5.16027 8.11478,8.46011 1.04694,2.23404 1.18023,3.03758 1.18023,7.11526 0,4.13277 -0.122,4.84523 -1.20852,7.05769 -3.56821,7.26584 -11.3785,11.45484 -18.63379,9.99411 z"
       id="path26720" />
    <path
       style="fill:#d9d9d8;fill-opacity:1;stroke-width:0.437793"
       d="m 383.9895,280.63265 c -0.15463,-1.98648 -0.28234,-9.4727 -0.28378,-16.63606 l -0.003,-13.02428 h 4.28352 4.28352 l 0.8289,1.42282 c 2.4138,4.14335 9.02084,13.89986 9.41288,13.89986 0.29616,0 0.45398,-2.66342 0.45398,-7.66134 v -7.66134 h 4.22912 4.22911 l -0.28804,10.83533 c -0.15843,5.95943 -0.28848,13.44565 -0.289,16.63606 l -8e-4,5.80073 h -2.88889 c -3.6359,0 -3.52228,0.11684 -10.46374,-10.75976 l -5.25349,-8.23172 -0.2704,6.75954 c -0.14872,3.71775 -0.29648,7.99084 -0.32835,9.49574 l -0.0579,2.7362 h -3.65634 -3.65633 z"
       id="path26759" />
    <path
       style="fill:#d9d9d8;fill-opacity:1;stroke-width:0.437793"
       d="m 383.9895,280.63265 c -0.15463,-1.98648 -0.28234,-9.4727 -0.28378,-16.63606 l -0.003,-13.02428 h 4.28352 4.28352 l 0.8289,1.42282 c 2.4138,4.14335 9.02084,13.89986 9.41288,13.89986 0.29616,0 0.45398,-2.66342 0.45398,-7.66134 v -7.66134 h 4.22912 4.22911 l -0.28804,10.83533 c -0.15843,5.95943 -0.28848,13.44565 -0.289,16.63606 l -8e-4,5.80073 h -2.88889 c -3.6359,0 -3.52228,0.11684 -10.46374,-10.75976 l -5.25349,-8.23172 -0.2704,6.75954 c -0.14872,3.71775 -0.29648,7.99084 -0.32835,9.49574 l -0.0579,2.7362 h -3.65634 -3.65633 z"
       id="path26835" />
    <path
       style="fill:#d9d9d8;fill-opacity:1;stroke-width:0.437793"
       d="m 384.40146,282.38382 c -0.12698,-1.02334 -0.35557,-8.50956 -0.50796,-16.63606 l -0.27709,-14.77545 h 4.09696 4.09696 l 5.03055,7.53944 c 2.7668,4.14669 5.29397,7.61644 5.61594,7.71055 0.40445,0.11821 0.55926,-0.21624 0.50085,-1.08203 -0.0465,-0.68922 -0.0637,-4.15896 -0.0382,-7.71054 l 0.0464,-6.45742 h 4.22504 4.22505 l -0.28267,4.26846 c -0.15546,2.34766 -0.28367,9.86124 -0.28492,16.69687 l -0.002,12.4284 -2.73029,-0.24758 c -2.45899,-0.22297 -2.88466,-0.4139 -4.28379,-1.92141 -0.85443,-0.92062 -3.78757,-5.1707 -6.51809,-9.44464 -2.73053,-4.27393 -5.05639,-7.77079 -5.16859,-7.77079 -0.11219,0 -0.13888,1.2662 -0.0593,2.81377 0.0796,1.54758 -8e-4,2.95946 -0.17903,3.13751 -0.17805,0.17805 -0.32373,3.24598 -0.32373,6.81763 v 6.4939 h -3.4755 -3.47551 z"
       id="path28822" />
    <path
       style="fill:#d9d9d8;fill-opacity:1;stroke-width:0.437793"
       d="m 357.33499,283.72226 c -7.39897,-2.81589 -12.1519,-9.96664 -11.61473,-17.4743 0.41553,-5.80769 4.35367,-11.48158 9.73671,-14.02821 2.38008,-1.12599 3.08445,-1.24679 7.27168,-1.24709 4.29325,-3.3e-4 4.83414,0.0985 7.30962,1.33551 3.06494,1.53157 6.47397,4.99744 8.03627,8.17025 0.83426,1.69428 1.06034,2.95484 1.18113,6.58556 0.14111,4.24175 0.0759,4.64728 -1.17903,7.32895 -3.72686,7.96412 -13.1693,12.2112 -20.74165,9.32933 z m 6.44861,-16.33278 c 0,-1.16611 -0.14659,-1.31338 -1.30737,-1.31338 -0.91315,0 -1.35336,0.23874 -1.45985,0.79171 -0.27347,1.42003 0.28085,2.12103 1.56081,1.9738 1.01776,-0.11706 1.20641,-0.34414 1.20641,-1.45213 z"
       id="path28861" />
    <path
       style="fill:#d9d9d8;fill-opacity:1;stroke-width:0.0680628"
       d=""
       id="path30575" />
    <path
       style="fill:#d9d9d8;fill-opacity:1;stroke:#838383;stroke-width:0.309565;stroke-opacity:1"
       d="M 244.92862,267.33921 V 250.2697 l 8.90386,0.15121 c 10.10704,0.17164 10.63508,0.28157 13.07562,2.72212 2.77668,2.77668 3.66331,6.92676 2.34139,10.95947 l -0.59911,1.82767 1.2047,2.19668 c 1.10203,2.00943 1.2155,2.43832 1.33132,5.03177 0.11298,2.53 0.0425,3.01889 -0.65525,4.54291 -1.03963,2.27086 -2.99997,4.34114 -5.06922,5.35353 -2.00944,0.98312 -5.53549,1.30244 -14.72897,1.33384 l -5.80434,0.0198 z"
       id="path34002" />
  </g>
  <g
     inkscape:groupmode="layer"
     id="layer6"
     inkscape:label="text 2"
     style="display:inline"
     transform="translate(-19,-18.5)"
     sodipodi:insensitive="true">
    <path
       style="display:inline;fill:#8c8c8c;fill-opacity:1;stroke-width:0.40201"
       d="m 35.080402,273.57538 v -2.81407 h 4.158799 c 4.69242,0 5.623445,0.47713 5.623445,2.8819 0,2.18515 -1.18637,2.74624 -5.80668,2.74624 h -3.975564 z"
       id="path13588" />
    <path
       style="display:inline;fill:#8c8c8c;fill-opacity:1;stroke-width:0.40201"
       d="m 35.080402,260.71106 v -2.41207 h 3.809828 c 3.650751,0 3.838176,0.0433 4.488759,1.03619 0.513136,0.78314 0.586871,1.29795 0.301944,2.10813 -0.445164,1.26582 -1.482664,1.56365 -5.685958,1.63224 l -2.914573,0.0476 z"
       id="path13590" />
    <path
       style="display:inline;fill:#8c8c8c;fill-opacity:1;stroke-width:0.40201"
       d="m 65.633166,261.91709 v -3.6181 h 2.759855 c 2.156708,0 2.984603,0.17679 3.788229,0.80893 1.367216,1.07544 1.719892,2.81063 0.895345,4.40513 -0.800691,1.54837 -1.985604,2.02213 -5.05754,2.02213 h -2.385889 z"
       id="path13594" />
    <path
       style="display:inline;fill:#8c8c8c;fill-opacity:1;stroke-width:0.40201"
       d="m 106.9062,276.12144 c -0.14741,-0.1474 -0.26801,-4.23777 -0.26801,-9.0897 v -8.82169 l 4.36003,0.14923 c 4.01167,0.13731 4.51612,0.24575 6.31388,1.35721 3.6974,2.28593 5.23535,7.32048 3.44222,11.26826 -1.0433,2.29694 -3.70744,4.45718 -6.14034,4.97894 -2.20201,0.47225 -7.28917,0.57636 -7.70778,0.15775 z"
       id="path13560" />
    <path
       style="display:inline;fill:#8c8c8c;fill-opacity:1;stroke-width:0.40201"
       d="m 209.15075,261.95709 v -3.6581 h 3.44801 c 3.30678,0 3.49818,0.0502 4.67269,1.22468 1.05418,1.05418 1.19159,1.42863 0.98697,2.68954 -0.41055,2.52991 -1.37318,3.10072 -5.50031,3.26146 l -3.60736,0.14051 z"
       id="path13568" />
    <path
       style="display:inline;fill:#8c8c8c;fill-opacity:1;stroke-width:0.40201"
       d="m 253.67337,262.89962 c -0.16583,-0.17189 -0.30151,-1.27734 -0.30151,-2.45657 v -2.14406 h 3.79038 c 2.90979,0 3.93714,0.14677 4.42211,0.63174 0.80182,0.80182 0.81727,2.73393 0.0271,3.3897 -0.68208,0.56608 -7.47272,1.06154 -7.93809,0.57919 z"
       id="path13576" />
    <path
       style="display:inline;fill:#8c8c8c;fill-opacity:1;stroke-width:0.40201"
       d="m 253.63987,276.12144 c -0.14741,-0.1474 -0.26801,-1.41373 -0.26801,-2.81407 v -2.54606 h 4.39932 c 4.0904,0 4.44325,0.0627 5.02512,0.89347 0.96012,1.37076 0.78548,2.94267 -0.43343,3.90147 -0.89724,0.70577 -1.6248,0.8332 -4.75712,0.8332 -2.03383,0 -3.81848,-0.12061 -3.96588,-0.26801 z"
       id="path13574" />
    <path
       style="display:inline;fill:#033ed3;fill-opacity:1;stroke-width:0.40201"
       d="m 359.1005,275.76992 c -5.5134,-2.47197 -7.17604,-9.35238 -3.3423,-13.83125 1.95564,-2.28472 3.97982,-3.2397 6.84387,-3.22884 5.27629,0.02 8.96074,3.76645 8.96074,9.11146 0,2.34233 -1.84937,5.69941 -3.93692,7.14647 -1.42293,0.98636 -2.19913,1.21713 -4.42211,1.31468 -1.80887,0.0794 -3.15932,-0.0893 -4.10328,-0.51252 z"
       id="path13554" />
    <path
       style="fill:#033ed3;fill-opacity:1;stroke-width:0.437793"
       d="m 108.00418,276.05029 c -0.98238,-0.18429 -0.98503,-0.20824 -0.98503,-8.91016 v -8.72537 l 2.07951,0.002 c 3.71417,0.005 7.12986,0.78114 8.69877,1.9778 3.0262,2.3082 4.30274,7.37326 2.65926,10.55141 -0.92871,1.79592 -3.38808,3.90715 -5.1914,4.45651 -1.75616,0.53501 -5.89354,0.90382 -7.26111,0.64727 z"
       id="path18144" />
    <path
       style="fill:#033ed3;fill-opacity:1;stroke-width:0.437793"
       d="m 65.866794,261.9697 v -3.55494 h 1.94156 c 4.739015,0 6.913809,2.68647 4.472454,5.52471 -0.863071,1.00338 -1.461407,1.22694 -3.721222,1.3904 l -2.692792,0.19478 z"
       id="path18183" />
    <path
       style="fill:#033ed3;fill-opacity:1;stroke-width:0.437793"
       d="m 35.221421,260.60371 v -2.18895 h 3.186022 c 3.449883,0 5.132008,0.71747 5.132008,2.18895 0,1.47148 -1.682125,2.18896 -5.132008,2.18896 h -3.186022 z"
       id="path18222" />
    <path
       style="fill:#033ed3;fill-opacity:1;stroke-width:0.437793"
       d="m 35.221421,273.803 v -2.6923 h 3.856445 c 4.334066,0 5.446615,0.48444 5.446615,2.37163 0,1.96512 -0.867552,2.4142 -5.267098,2.72649 l -4.035962,0.28648 z"
       id="path18261" />
    <path
       style="fill:#033ed3;fill-opacity:1;stroke-width:0.437793"
       d="m 209.46226,261.98058 v -3.56582 h 2.59825 c 3.14944,0 4.57346,0.49319 5.49796,1.90416 0.8792,1.34182 0.48366,3.15758 -0.88289,4.05298 -0.54844,0.35935 -2.3958,0.77062 -4.10524,0.91394 l -3.10808,0.26056 z"
       id="path18300" />
    <path
       style="fill:#033ed3;fill-opacity:1;stroke-width:0.437793"
       d="m 253.67916,260.60371 v -2.18895 h 3.23493 c 3.85953,0 5.4044,0.84918 4.93649,2.71347 -0.31157,1.24141 -1.76102,1.651 -5.87302,1.65962 l -2.2984,0.005 z"
       id="path18339" />
    <path
       style="fill:#033ed3;fill-opacity:1;stroke-width:0.437793"
       d="m 255.10197,276.07062 c -1.40627,-0.19737 -1.42281,-0.22738 -1.42281,-2.57981 v -2.38011 h 4.14892 c 3.92032,0 4.18766,0.0591 4.852,1.07304 0.80962,1.23562 0.52153,2.66028 -0.66651,3.2961 -0.9759,0.52229 -4.96823,0.86354 -6.9116,0.59078 z"
       id="path18378" />
  </g>
</svg>
