<?xml version="1.0" standalone="no"?>
<!DOCTYPE svg PUBLIC "-//W3C//DTD SVG 20010904//EN"
 "http://www.w3.org/TR/2001/REC-SVG-20010904/DTD/svg10.dtd">
<svg version="1.0" xmlns="http://www.w3.org/2000/svg"
 width="755.000000pt" height="755.000000pt" viewBox="0 0 755.000000 755.000000"
 preserveAspectRatio="xMidYMid meet">
<metadata>
Created by potrace 1.14, written by Peter Selinger 2001-2017
</metadata>
<g transform="translate(0.000000,755.000000) scale(0.100000,-0.100000)"
fill="#000000" stroke="none">
<path d="M2298 6223 c-20 -43 -58 -123 -83 -178 -26 -55 -59 -127 -75 -160
-15 -33 -40 -87 -55 -120 -40 -86 -86 -185 -144 -308 -28 -60 -51 -110 -51
-113 0 -2 -20 -45 -45 -96 -25 -51 -45 -98 -45 -105 0 -7 -4 -13 -8 -13 -5 0
-15 -19 -22 -42 -8 -24 -17 -45 -20 -48 -6 -6 -14 -24 -58 -120 -40 -89 -77
-169 -127 -275 -23 -49 -53 -112 -65 -140 -12 -27 -35 -76 -51 -109 -16 -32
-29 -64 -29 -72 0 -8 -4 -14 -10 -14 -5 0 -10 -5 -10 -12 0 -6 -17 -45 -37
-87 -20 -42 -37 -78 -38 -81 0 -3 -12 -27 -24 -55 -56 -120 -101 -216 -136
-290 -20 -44 -49 -105 -62 -135 -36 -78 -91 -196 -121 -260 -14 -30 -26 -57
-27 -60 0 -3 -11 -24 -23 -46 -11 -23 -18 -44 -15 -48 4 -3 1 -6 -5 -6 -7 0
-12 -4 -12 -10 0 -5 -17 -45 -37 -87 -20 -43 -38 -80 -38 -83 -3 -9 -57 -125
-86 -184 -16 -32 -29 -63 -29 -69 0 -6 -6 -18 -13 -26 -8 -9 -21 -34 -30 -56
-8 -22 -39 -89 -67 -150 -29 -60 -63 -135 -77 -165 -14 -30 -53 -111 -85 -180
-33 -69 -61 -129 -62 -135 -2 -5 -22 -50 -45 -100 -82 -171 -141 -297 -141
-300 0 -2 -24 -54 -54 -116 -29 -63 -68 -148 -86 -189 -18 -41 -37 -80 -42
-87 -6 -8 -3 -15 11 -23 15 -7 525 -10 1808 -8 l1788 3 42 85 c75 150 173 362
179 386 3 13 12 28 20 35 8 6 14 15 14 20 0 4 18 47 41 96 23 48 55 117 71
153 16 36 49 106 73 155 42 88 76 161 150 320 20 44 52 112 70 150 171 363
165 348 151 361 -6 5 -33 25 -61 44 -27 18 -52 36 -55 40 -3 3 -70 53 -150
110 -80 58 -146 108 -148 112 -2 4 -9 8 -14 8 -6 0 -18 7 -27 16 -9 8 -47 38
-86 65 -38 28 -81 59 -95 69 -14 10 -88 64 -165 120 -77 56 -151 110 -165 120
-52 38 -349 256 -370 270 -12 8 -45 32 -73 53 -58 43 -67 45 -74 17 -3 -11 -8
-20 -12 -20 -3 0 -12 -15 -20 -32 -15 -34 -78 -170 -137 -294 -19 -39 -34 -76
-34 -83 0 -6 -5 -11 -10 -11 -6 0 -9 -3 -8 -7 1 -5 -7 -28 -19 -53 -61 -126
-95 -208 -99 -235 -4 -29 4 -36 192 -170 108 -77 201 -145 208 -150 6 -6 52
-39 101 -75 50 -35 92 -68 93 -72 2 -4 9 -8 16 -8 7 0 21 -9 32 -21 10 -12 31
-27 46 -35 50 -26 52 -57 9 -124 -15 -22 -210 -358 -239 -410 -13 -25 -30 -51
-35 -59 -6 -7 -16 -23 -22 -35 l-11 -21 -779 -1 c-429 -1 -783 1 -787 3 -6 3
16 54 112 258 22 46 79 170 122 265 17 36 45 98 64 138 19 39 46 98 61 130 14
31 50 108 79 170 30 63 54 120 54 128 0 8 3 14 8 14 4 0 13 15 21 33 26 62
103 227 182 396 33 67 59 125 59 126 0 2 23 53 51 112 28 59 92 196 141 303
50 107 105 227 124 266 19 39 34 76 34 83 0 6 5 11 12 11 6 0 8 3 5 6 -4 4 0
19 8 33 16 28 145 301 145 306 0 2 22 50 49 107 26 56 63 135 81 173 18 39 47
102 65 140 97 206 127 271 181 390 32 72 62 132 66 133 5 2 8 10 8 19 0 8 7
27 15 41 8 15 39 79 68 142 29 63 63 135 74 160 19 41 19 46 4 51 -9 4 -234 7
-501 8 l-485 2 -37 -78z"/>
<path d="M3900 6248 c-13 -29 -48 -105 -78 -168 -124 -262 -139 -295 -139
-300 0 -3 -14 -32 -31 -65 -28 -57 -53 -109 -145 -305 -21 -47 -56 -121 -77
-165 -21 -44 -57 -120 -80 -170 -23 -49 -61 -130 -85 -180 -23 -49 -53 -112
-65 -140 -12 -27 -38 -83 -56 -123 -19 -41 -32 -78 -29 -83 3 -5 128 -98 278
-206 150 -109 277 -201 282 -206 6 -4 84 -62 175 -128 91 -66 173 -126 182
-134 9 -7 29 -22 45 -32 29 -19 34 -22 70 -51 11 -9 31 -24 43 -32 35 -24 304
-219 315 -227 18 -15 82 -53 89 -53 7 0 34 56 146 295 141 302 210 456 210
469 0 8 -15 25 -32 38 -18 12 -37 26 -43 30 -14 12 -175 130 -291 213 -53 39
-102 76 -110 83 -7 6 -15 12 -18 12 -3 0 -14 7 -23 15 -43 35 -209 155 -215
155 -14 0 -8 47 7 60 8 7 15 16 15 21 0 4 13 30 29 57 15 26 39 68 53 93 43
74 183 311 210 354 l25 40 787 2 c637 1 785 -1 777 -11 -6 -7 -9 -15 -6 -18 3
-3 -1 -11 -10 -18 -8 -7 -15 -19 -15 -26 0 -7 -9 -30 -19 -51 -11 -21 -29 -60
-41 -88 -12 -27 -36 -77 -52 -110 -17 -33 -31 -62 -31 -65 0 -3 -19 -45 -42
-95 -23 -49 -54 -116 -69 -147 -14 -32 -38 -84 -53 -115 -15 -32 -27 -60 -28
-63 0 -3 -11 -24 -23 -46 -11 -23 -18 -44 -15 -48 4 -3 1 -6 -5 -6 -7 0 -12
-4 -12 -10 0 -5 -17 -45 -37 -87 -20 -43 -38 -80 -38 -83 -1 -3 -15 -34 -32
-70 -17 -36 -61 -130 -98 -210 -37 -80 -83 -179 -102 -220 -32 -68 -179 -386
-240 -520 -14 -30 -52 -111 -84 -179 -33 -67 -59 -125 -59 -127 0 -2 -16 -36
-35 -75 -19 -40 -35 -78 -35 -86 0 -7 -4 -13 -10 -13 -5 0 -10 -9 -10 -20 0
-11 -4 -20 -10 -20 -5 0 -10 -7 -10 -15 0 -8 -9 -31 -19 -52 -22 -43 -82 -171
-191 -408 -15 -33 -49 -104 -74 -158 -25 -55 -46 -100 -46 -102 0 -1 -27 -61
-61 -131 -63 -135 -91 -195 -129 -279 -72 -157 -104 -225 -126 -267 -14 -27
-23 -48 -20 -48 3 0 -1 -12 -9 -27 -8 -15 -12 -30 -9 -34 3 -5 229 -9 503 -9
l498 0 46 102 c43 97 83 183 198 426 27 57 49 105 49 107 0 2 21 47 46 102 46
97 77 165 133 286 47 101 290 627 323 697 17 36 43 92 58 125 55 121 84 183
141 304 33 67 59 125 59 126 0 2 24 55 53 117 30 62 62 131 72 153 10 22 34
76 55 120 20 44 50 107 65 140 15 33 38 81 51 107 12 25 20 49 17 52 -4 3 -1
6 5 6 7 0 12 4 12 9 0 10 27 69 175 386 23 50 52 113 65 140 12 28 43 93 68
145 25 52 46 100 48 105 1 6 26 60 55 120 29 61 54 112 54 115 2 7 35 79 90
195 53 112 95 203 132 285 14 30 40 87 58 125 40 86 120 258 175 380 13 28 25
53 27 58 2 4 -812 7 -1810 7 l-1813 0 -24 -52z"/>
<path d="M4817 4944 c-21 -43 -14 -60 45 -100 24 -16 45 -32 48 -35 6 -6 179
-132 265 -192 33 -23 65 -42 72 -43 6 -1 17 12 24 30 7 17 18 38 24 46 6 8 24
44 40 80 16 36 46 101 67 146 21 45 38 86 38 93 0 8 -83 11 -303 11 l-303 0
-17 -36z"/>
<path d="M2257 2948 c-19 -40 -54 -113 -77 -163 -23 -49 -51 -108 -61 -129
-10 -22 -19 -41 -19 -43 0 -2 137 -3 304 -3 l304 0 21 36 c12 19 21 37 21 39
0 2 -24 22 -52 44 -29 22 -57 44 -63 49 -5 4 -53 39 -105 77 -52 38 -97 72
-100 75 -8 8 -128 90 -133 90 -2 0 -20 -33 -40 -72z"/>
</g>
</svg>
